<?xml version="1.0" encoding="UTF-8" standalone="no"?>
<!DOCTYPE svg PUBLIC "-//W3C//DTD SVG 1.1//EN" "http://www.w3.org/Graphics/SVG/1.1/DTD/svg11.dtd">
<!-- 由 Microsoft Visio, SVG Export 生成 flow2.svg 页-1 -->
<svg xmlns="http://www.w3.org/2000/svg" xmlns:xlink="http://www.w3.org/1999/xlink" xmlns:ev="http://www.w3.org/2001/xml-events"
		xmlns:v="http://schemas.microsoft.com/visio/2003/SVGExtensions/" width="11.3073in" height="9.11343in"
		viewBox="0 0 814.128 656.167" xml:space="preserve" color-interpolation-filters="sRGB" class="st14">
	<v:documentProperties v:langID="2052" v:metric="true" v:viewMarkup="false"/>

	<style type="text/css">
	<![CDATA[
		.st1 {visibility:visible}
		.st2 {fill:#5b9bd5;fill-opacity:0.22;filter:url(#filter_2);stroke:#5b9bd5;stroke-opacity:0.22}
		.st3 {fill:#5b9bd5;stroke:#c7c8c8;stroke-width:0.25}
		.st4 {stroke:#5b9bd5;stroke-dasharray:7,5;stroke-linecap:round;stroke-linejoin:round;stroke-width:1}
		.st5 {fill:#feffff;font-family:Calibri;font-size:1.00001em;font-weight:bold}
		.st6 {marker-end:url(#mrkr4-106);stroke:#5b9bd5;stroke-linecap:round;stroke-linejoin:round;stroke-width:1}
		.st7 {fill:#5b9bd5;fill-opacity:1;stroke:#5b9bd5;stroke-opacity:1;stroke-width:0.23584905660377}
		.st8 {fill:#ffffff;stroke:none;stroke-linecap:butt;stroke-width:7.2}
		.st9 {fill:#4f87bb;font-family:黑体;font-size:0.833336em}
		.st10 {font-family:Calibri;font-size:1em}
		.st11 {fill:#ffffff;stroke:none;stroke-linecap:butt}
		.st12 {font-size:1em}
		.st13 {fill:#ff0000;font-family:黑体;font-size:0.833336em}
		.st14 {fill:none;fill-rule:evenodd;font-size:12px;overflow:visible;stroke-linecap:square;stroke-miterlimit:3}
	]]>
	</style>

	<defs id="Markers">
		<g id="lend4">
			<path d="M 2 1 L 0 0 L 2 -1 L 2 1 " style="stroke:none"/>
		</g>
		<marker id="mrkr4-106" class="st7" v:arrowType="4" v:arrowSize="3" v:setback="8.48" refX="-8.48" orient="auto"
				markerUnits="strokeWidth" overflow="visible">
			<use xlink:href="#lend4" transform="scale(-4.24,-4.24) "/>
		</marker>
	</defs>
	<defs id="Filters">
		<filter id="filter_2">
			<feGaussianBlur stdDeviation="2"/>
		</filter>
	</defs>
	<g v:mID="0" v:index="1" v:groupContext="foregroundPage">
		<title>页-1</title>
		<v:pageProperties v:drawingScale="0.0393701" v:pageScale="0.0393701" v:drawingUnits="24" v:shadowOffsetX="8.50394"
				v:shadowOffsetY="-8.50394"/>
		<v:layer v:name="连接线" v:index="0"/>
		<g id="group462-1" transform="translate(121.353,-615.523)" v:mID="462" v:groupContext="group">
			<v:userDefs>
				<v:ud v:nameU="visVersion" v:prompt="" v:val="VT0(15):26"/>
				<v:ud v:nameU="ShowActor" v:prompt="" v:val="VT0(0):5"/>
				<v:ud v:nameU="ShowDestruction" v:prompt="" v:val="VT0(0):5"/>
			</v:userDefs>
			<title>对象生命线.462</title>
			<desc>Router</desc>
			<g id="shape463-2" v:mID="463" v:groupContext="shape" transform="translate(0,-5.66929)">
				<title>工作表.463</title>
				<g id="shadow463-3" v:groupContext="shadow" v:shadowOffsetX="0.345598" v:shadowOffsetY="-1.97279" v:shadowType="1"
						transform="matrix(1,0,0,1,0.345598,1.97279)" class="st1">
					<rect x="0" y="630.655" width="51.0236" height="25.5118" class="st2"/>
				</g>
				<rect x="0" y="630.655" width="51.0236" height="25.5118" class="st3"/>
			</g>
			<g id="shape464-7" v:mID="464" v:groupContext="shape" transform="translate(17.0079,-40.3937)">
				<title>工作表.464</title>
				<g id="shadow464-8" v:groupContext="shadow" v:shadowOffsetX="0.345598" v:shadowOffsetY="-1.97279" v:shadowType="1"
						transform="matrix(1,0,0,1,0.345598,1.97279)" class="st1">
					<path d="M8.5 656.17 a0 0 0 1 1 0 0 a0 0 0 1 1 0 0 Z" class="st2"/>
				</g>
				<path d="M8.5 656.17 a0 0 0 1 1 0 0 a0 0 0 1 1 0 0 Z" class="st3"/>
			</g>
			<g id="shape465-12" v:mID="465" v:groupContext="shape" transform="translate(17.0079,614.106)">
				<title>工作表.465</title>
				<g id="shadow465-13" v:groupContext="shadow" v:shadowOffsetX="0.345598" v:shadowOffsetY="-1.97279" v:shadowType="1"
						transform="matrix(1,0,0,1,0.345598,1.97279)" class="st1"/>
			</g>
			<g id="shape466-17" v:mID="466" v:groupContext="shape" transform="translate(681.679,656.167) rotate(90)">
				<title>工作表.466</title>
				<path d="M0 656.17 L592.44 656.17" class="st4"/>
			</g>
			<g id="shape462-20" v:mID="462" v:groupContext="groupContent">
				<v:textBlock v:margins="rect(4,4,4,4)" v:tabSpace="42.5197"/>
				<v:textRect cx="25.5118" cy="637.742" width="51.03" height="36.8504"/>
				<g id="shadow462-21" v:groupContext="shadow" v:shadowOffsetX="0.345598" v:shadowOffsetY="-1.97279" v:shadowType="1"
						transform="matrix(1,0,0,1,0.345598,1.97279)" class="st1">
					<rect x="0" y="619.316" width="51.0236" height="36.8504" class="st2"/>
				</g>
				<rect x="0" y="619.316" width="51.0236" height="36.8504" class="st3"/>
				<text x="8.45" y="641.34" class="st5" v:langID="2052"><v:paragraph v:horizAlign="1"/><v:tabList/>Router</text>			</g>
		</g>
		<g id="group467-26" transform="translate(233.085,-616.552)" v:mID="467" v:groupContext="group">
			<v:userDefs>
				<v:ud v:nameU="visVersion" v:prompt="" v:val="VT0(15):26"/>
				<v:ud v:nameU="ShowActor" v:prompt="" v:val="VT0(0):5"/>
				<v:ud v:nameU="ShowDestruction" v:prompt="" v:val="VT0(0):5"/>
			</v:userDefs>
			<title>对象生命线.467</title>
			<desc>Driver</desc>
			<g id="shape468-27" v:mID="468" v:groupContext="shape" transform="translate(0,-5.15458)">
				<title>工作表.468</title>
				<g id="shadow468-28" v:groupContext="shadow" v:shadowOffsetX="0.345598" v:shadowOffsetY="-1.97279" v:shadowType="1"
						transform="matrix(1,0,0,1,0.345598,1.97279)" class="st1">
					<rect x="0" y="630.655" width="51.0236" height="25.5118" class="st2"/>
				</g>
				<rect x="0" y="630.655" width="51.0236" height="25.5118" class="st3"/>
			</g>
			<g id="shape469-32" v:mID="469" v:groupContext="shape" transform="translate(17.0079,-39.3643)">
				<title>工作表.469</title>
				<g id="shadow469-33" v:groupContext="shadow" v:shadowOffsetX="0.345598" v:shadowOffsetY="-1.97279" v:shadowType="1"
						transform="matrix(1,0,0,1,0.345598,1.97279)" class="st1">
					<path d="M8.5 656.17 a0 0 0 1 1 0 0 a0 0 0 1 1 0 0 Z" class="st2"/>
				</g>
				<path d="M8.5 656.17 a0 0 0 1 1 0 0 a0 0 0 1 1 0 0 Z" class="st3"/>
			</g>
			<g id="shape470-37" v:mID="470" v:groupContext="shape" transform="translate(17.0079,609.098)">
				<title>工作表.470</title>
				<g id="shadow470-38" v:groupContext="shadow" v:shadowOffsetX="0.345598" v:shadowOffsetY="-1.97279" v:shadowType="1"
						transform="matrix(1,0,0,1,0.345598,1.97279)" class="st1"/>
			</g>
			<g id="shape471-42" v:mID="471" v:groupContext="shape" transform="translate(681.679,656.167) rotate(90)">
				<title>工作表.471</title>
				<path d="M0 656.17 L587.8 656.17" class="st4"/>
			</g>
			<g id="shape467-45" v:mID="467" v:groupContext="groupContent">
				<v:textBlock v:margins="rect(4,4,4,4)" v:tabSpace="42.5197"/>
				<v:textRect cx="25.5118" cy="638.256" width="51.03" height="35.821"/>
				<g id="shadow467-46" v:groupContext="shadow" v:shadowOffsetX="0.345598" v:shadowOffsetY="-1.97279" v:shadowType="1"
						transform="matrix(1,0,0,1,0.345598,1.97279)" class="st1">
					<rect x="0" y="620.346" width="51.0236" height="35.821" class="st2"/>
				</g>
				<rect x="0" y="620.346" width="51.0236" height="35.821" class="st3"/>
				<text x="10.13" y="641.86" class="st5" v:langID="2052"><v:paragraph v:horizAlign="1"/><v:tabList/>Driver</text>			</g>
		</g>
		<g id="group472-51" transform="translate(9.62044,-615.523)" v:mID="472" v:groupContext="group">
			<v:userDefs>
				<v:ud v:nameU="visVersion" v:prompt="" v:val="VT0(15):26"/>
				<v:ud v:nameU="ShowActor" v:prompt="" v:val="VT0(0):5"/>
				<v:ud v:nameU="ShowDestruction" v:prompt="" v:val="VT0(0):5"/>
			</v:userDefs>
			<title>对象生命线.472</title>
			<desc>SDK</desc>
			<g id="shape473-52" v:mID="473" v:groupContext="shape" transform="translate(0,-5.66929)">
				<title>工作表.473</title>
				<g id="shadow473-53" v:groupContext="shadow" v:shadowOffsetX="0.345598" v:shadowOffsetY="-1.97279" v:shadowType="1"
						transform="matrix(1,0,0,1,0.345598,1.97279)" class="st1">
					<rect x="0" y="630.655" width="51.0236" height="25.5118" class="st2"/>
				</g>
				<rect x="0" y="630.655" width="51.0236" height="25.5118" class="st3"/>
			</g>
			<g id="shape474-57" v:mID="474" v:groupContext="shape" transform="translate(17.0079,-40.3937)">
				<title>工作表.474</title>
				<g id="shadow474-58" v:groupContext="shadow" v:shadowOffsetX="0.345598" v:shadowOffsetY="-1.97279" v:shadowType="1"
						transform="matrix(1,0,0,1,0.345598,1.97279)" class="st1">
					<path d="M8.5 656.17 a0 0 0 1 1 0 0 a0 0 0 1 1 0 0 Z" class="st2"/>
				</g>
				<path d="M8.5 656.17 a0 0 0 1 1 0 0 a0 0 0 1 1 0 0 Z" class="st3"/>
			</g>
			<g id="shape475-62" v:mID="475" v:groupContext="shape" transform="translate(17.0079,614.106)">
				<title>工作表.475</title>
				<g id="shadow475-63" v:groupContext="shadow" v:shadowOffsetX="0.345598" v:shadowOffsetY="-1.97279" v:shadowType="1"
						transform="matrix(1,0,0,1,0.345598,1.97279)" class="st1"/>
			</g>
			<g id="shape476-67" v:mID="476" v:groupContext="shape" transform="translate(681.679,656.167) rotate(90)">
				<title>工作表.476</title>
				<path d="M0 656.17 L592.44 656.17" class="st4"/>
			</g>
			<g id="shape472-70" v:mID="472" v:groupContext="groupContent">
				<v:textBlock v:margins="rect(4,4,4,4)" v:tabSpace="42.5197"/>
				<v:textRect cx="25.5118" cy="637.742" width="51.03" height="36.8504"/>
				<g id="shadow472-71" v:groupContext="shadow" v:shadowOffsetX="0.345598" v:shadowOffsetY="-1.97279" v:shadowType="1"
						transform="matrix(1,0,0,1,0.345598,1.97279)" class="st1">
					<rect x="0" y="619.316" width="51.0236" height="36.8504" class="st2"/>
				</g>
				<rect x="0" y="619.316" width="51.0236" height="36.8504" class="st3"/>
				<text x="15.61" y="641.34" class="st5" v:langID="2052"><v:paragraph v:horizAlign="1"/><v:tabList/>SDK</text>			</g>
		</g>
		<g id="group477-76" transform="translate(607.967,-616.552)" v:mID="477" v:groupContext="group">
			<v:userDefs>
				<v:ud v:nameU="visVersion" v:prompt="" v:val="VT0(15):26"/>
				<v:ud v:nameU="ShowActor" v:prompt="" v:val="VT0(0):5"/>
				<v:ud v:nameU="ShowDestruction" v:prompt="" v:val="VT0(0):5"/>
			</v:userDefs>
			<title>对象生命线.477</title>
			<desc>Connection</desc>
			<g id="shape478-77" v:mID="478" v:groupContext="shape" transform="translate(9.92126,-5.15458)">
				<title>工作表.478</title>
				<g id="shadow478-78" v:groupContext="shadow" v:shadowOffsetX="0.345598" v:shadowOffsetY="-1.97279" v:shadowType="1"
						transform="matrix(1,0,0,1,0.345598,1.97279)" class="st1">
					<rect x="0" y="630.655" width="51.0236" height="25.5118" class="st2"/>
				</g>
				<rect x="0" y="630.655" width="51.0236" height="25.5118" class="st3"/>
			</g>
			<g id="shape479-82" v:mID="479" v:groupContext="shape" transform="translate(26.9291,-39.3643)">
				<title>工作表.479</title>
				<g id="shadow479-83" v:groupContext="shadow" v:shadowOffsetX="0.345598" v:shadowOffsetY="-1.97279" v:shadowType="1"
						transform="matrix(1,0,0,1,0.345598,1.97279)" class="st1">
					<path d="M8.5 656.17 a0 0 0 1 1 0 0 a0 0 0 1 1 0 0 Z" class="st2"/>
				</g>
				<path d="M8.5 656.17 a0 0 0 1 1 0 0 a0 0 0 1 1 0 0 Z" class="st3"/>
			</g>
			<g id="shape480-87" v:mID="480" v:groupContext="shape" transform="translate(23.622,610.965)">
				<title>工作表.480</title>
				<g id="shadow480-88" v:groupContext="shadow" v:shadowOffsetX="0.345598" v:shadowOffsetY="-1.97279" v:shadowType="1"
						transform="matrix(1,0,0,1,0.345598,1.97279)" class="st1"/>
			</g>
			<g id="shape481-92" v:mID="481" v:groupContext="shape" transform="translate(691.6,656.167) rotate(90)">
				<title>工作表.481</title>
				<path d="M0 656.17 L589.67 656.17" class="st4"/>
			</g>
			<g id="shape477-95" v:mID="477" v:groupContext="groupContent">
				<v:textBlock v:margins="rect(4,4,4,4)" v:tabSpace="42.5197"/>
				<v:textRect cx="35.4331" cy="638.256" width="70.87" height="35.821"/>
				<g id="shadow477-96" v:groupContext="shadow" v:shadowOffsetX="0.345598" v:shadowOffsetY="-1.97279" v:shadowType="1"
						transform="matrix(1,0,0,1,0.345598,1.97279)" class="st1">
					<rect x="0" y="620.346" width="70.8661" height="35.821" class="st2"/>
				</g>
				<rect x="0" y="620.346" width="70.8661" height="35.821" class="st3"/>
				<text x="7.06" y="641.86" class="st5" v:langID="2052"><v:paragraph v:horizAlign="1"/><v:tabList/>Connection</text>			</g>
		</g>
		<g id="shape482-101" v:mID="482" v:groupContext="shape" v:layerMember="0" transform="translate(35.1322,-523.397)">
			<title>动态连接线.482</title>
			<desc>发送 Transaction</desc>
			<v:userDefs>
				<v:ud v:nameU="IsReturn" v:prompt="" v:val="VT0(0):5"/>
				<v:ud v:nameU="IsAsync" v:prompt="" v:val="VT0(0):26"/>
				<v:ud v:nameU="IsSelfMessage" v:prompt="" v:val="VT0(0):5"/>
			</v:userDefs>
			<v:textBlock v:margins="rect(4,4,4,4)" v:tabSpace="42.5197"/>
			<v:textRect cx="55.8661" cy="649.08" width="80.04" height="21.3161"/>
			<path d="M0 649.08 L103.25 649.08" class="st6"/>
			<rect v:rectContext="textBkgnd" x="20.9833" y="642.424" width="69.7659" height="13.3124" class="st8"/>
			<text x="20.98" y="652.41" class="st9" v:langID="2052"><v:paragraph v:horizAlign="1"/><v:tabList/>发送<tspan class="st10"> </tspan><tspan
						class="st10">Transaction</tspan></text>		</g>
		<g id="shape483-111" v:mID="483" v:groupContext="shape" v:layerMember="0" transform="translate(139.778,-502.137)">
			<title>动态连接线.483</title>
			<desc>验证一级账户签名</desc>
			<v:userDefs>
				<v:ud v:nameU="IsReturn" v:prompt="" v:val="VT0(0):5"/>
				<v:ud v:nameU="IsAsync" v:prompt="" v:val="VT0(0):26"/>
				<v:ud v:nameU="IsSelfMessage" v:prompt="" v:val="VT0(0):5"/>
				<v:ud v:nameU="IsSelfMessage" v:prompt="" v:val="VT0(1):5"/>
			</v:userDefs>
			<v:textBlock v:margins="rect(4,4,4,4)" v:tabSpace="42.5197"/>
			<v:textRect cx="7.08661" cy="670.34" width="90.27" height="21.3161"/>
			<path d="M7.09 656.17 L25.09 656.17 L25.09 684.51 L15.57 684.51" class="st6"/>
			<rect v:rectContext="textBkgnd" x="-32.9134" y="663.684" width="80.0002" height="13.3124" class="st8"/>
			<text x="-32.91" y="673.67" class="st9" v:langID="2052"><v:paragraph v:horizAlign="1"/><v:tabList/>验证一级账户签名</text>		</g>
		<g id="group484-118" transform="translate(739.542,-615.523)" v:mID="484" v:groupContext="group">
			<v:userDefs>
				<v:ud v:nameU="visVersion" v:prompt="" v:val="VT0(15):26"/>
				<v:ud v:nameU="ShowActor" v:prompt="" v:val="VT0(0):5"/>
				<v:ud v:nameU="ShowDestruction" v:prompt="" v:val="VT0(0):5"/>
			</v:userDefs>
			<title>对象生命线.484</title>
			<desc>Blockchain</desc>
			<g id="shape485-119" v:mID="485" v:groupContext="shape" transform="translate(9.92126,-5.66929)">
				<title>工作表.485</title>
				<g id="shadow485-120" v:groupContext="shadow" v:shadowOffsetX="0.345598" v:shadowOffsetY="-1.97279"
						v:shadowType="1" transform="matrix(1,0,0,1,0.345598,1.97279)" class="st1">
					<rect x="0" y="630.655" width="51.0236" height="25.5118" class="st2"/>
				</g>
				<rect x="0" y="630.655" width="51.0236" height="25.5118" class="st3"/>
			</g>
			<g id="shape486-124" v:mID="486" v:groupContext="shape" transform="translate(26.9291,-40.3937)">
				<title>工作表.486</title>
				<g id="shadow486-125" v:groupContext="shadow" v:shadowOffsetX="0.345598" v:shadowOffsetY="-1.97279"
						v:shadowType="1" transform="matrix(1,0,0,1,0.345598,1.97279)" class="st1">
					<path d="M8.5 656.17 a0 0 0 1 1 0 0 a0 0 0 1 1 0 0 Z" class="st2"/>
				</g>
				<path d="M8.5 656.17 a0 0 0 1 1 0 0 a0 0 0 1 1 0 0 Z" class="st3"/>
			</g>
			<g id="shape487-129" v:mID="487" v:groupContext="shape" transform="translate(23.622,615.523)">
				<title>工作表.487</title>
				<g id="shadow487-130" v:groupContext="shadow" v:shadowOffsetX="0.345598" v:shadowOffsetY="-1.97279"
						v:shadowType="1" transform="matrix(1,0,0,1,0.345598,1.97279)" class="st1"/>
			</g>
			<g id="shape488-134" v:mID="488" v:groupContext="shape" transform="translate(691.6,656.167) rotate(90)">
				<title>工作表.488</title>
				<path d="M0 656.17 L593.86 656.17" class="st4"/>
			</g>
			<g id="shape484-137" v:mID="484" v:groupContext="groupContent">
				<v:textBlock v:margins="rect(4,4,4,4)" v:tabSpace="42.5197"/>
				<v:textRect cx="35.4331" cy="637.742" width="70.87" height="36.8504"/>
				<g id="shadow484-138" v:groupContext="shadow" v:shadowOffsetX="0.345598" v:shadowOffsetY="-1.97279"
						v:shadowType="1" transform="matrix(1,0,0,1,0.345598,1.97279)" class="st1">
					<rect x="0" y="619.316" width="70.8661" height="36.8504" class="st2"/>
				</g>
				<rect x="0" y="619.316" width="70.8661" height="36.8504" class="st3"/>
				<text x="8.59" y="641.34" class="st5" v:langID="2052"><v:paragraph v:horizAlign="1"/><v:tabList/>Blockchain</text>			</g>
		</g>
		<g id="shape489-143" v:mID="489" v:groupContext="shape" v:layerMember="0" transform="translate(42.2189,-598.515)">
			<title>动态连接线.489</title>
			<desc>一级账户签名</desc>
			<v:userDefs>
				<v:ud v:nameU="IsReturn" v:prompt="" v:val="VT0(0):5"/>
				<v:ud v:nameU="IsAsync" v:prompt="" v:val="VT0(0):26"/>
				<v:ud v:nameU="IsSelfMessage" v:prompt="" v:val="VT0(0):5"/>
				<v:ud v:nameU="IsSelfMessage" v:prompt="" v:val="VT0(1):5"/>
			</v:userDefs>
			<v:textBlock v:margins="rect(4,4,4,4)" v:tabSpace="42.5197"/>
			<v:textRect cx="-7.08661" cy="677.427" width="70.27" height="21.3161"/>
			<path d="M-7.09 656.17 L10.91 656.17 L10.91 698.69 L1.39 698.69" class="st6"/>
			<rect v:rectContext="textBkgnd" x="-37.0866" y="670.771" width="60.0002" height="13.3124" class="st11"/>
			<text x="-37.09" y="680.75" class="st9" v:langID="2052"><v:paragraph v:horizAlign="1"/><v:tabList/>一级账户签名</text>		</g>
		<g id="shape490-150" v:mID="490" v:groupContext="shape" v:layerMember="0" transform="translate(146.865,-447.376)">
			<title>动态连接线.490</title>
			<desc>发送 Transaction 一级账户身份</desc>
			<v:userDefs>
				<v:ud v:nameU="IsReturn" v:prompt="" v:val="VT0(0):5"/>
				<v:ud v:nameU="IsAsync" v:prompt="" v:val="VT0(0):26"/>
				<v:ud v:nameU="IsSelfMessage" v:prompt="" v:val="VT0(0):5"/>
			</v:userDefs>
			<v:textBlock v:margins="rect(4,4,4,4)" v:tabSpace="42.5197"/>
			<v:textRect cx="55.8661" cy="649.08" width="82.3" height="34.6285"/>
			<path d="M0 649.59 L103.25 648.64" class="st6"/>
			<rect v:rectContext="textBkgnd" x="20.9831" y="635.768" width="69.7659" height="26.6248" class="st8"/>
			<text x="20.98" y="645.75" class="st9" v:langID="2052"><v:paragraph v:horizAlign="1"/><v:tabList/>发送<tspan class="st10"> </tspan><tspan
						class="st10">Transaction <v:newlineChar/></tspan><tspan x="25.87" dy="1.331em" class="st12">一级账户身份</tspan> </text>		</g>
		<g id="shape491-160" v:mID="491" v:groupContext="shape" v:layerMember="0" transform="translate(258.597,-438.872)">
			<title>动态连接线.491</title>
			<desc>交易二进制编码 一级账户身份 算法类型</desc>
			<v:userDefs>
				<v:ud v:nameU="IsReturn" v:prompt="" v:val="VT0(0):5"/>
				<v:ud v:nameU="IsAsync" v:prompt="" v:val="VT0(0):26"/>
				<v:ud v:nameU="IsSelfMessage" v:prompt="" v:val="VT0(0):5"/>
			</v:userDefs>
			<v:textBlock v:margins="rect(4,4,4,4)" v:tabSpace="42.5197"/>
			<v:textRect cx="60.8268" cy="663.253" width="80.27" height="47.941"/>
			<path d="M0 662.74 L113.17 663.7" class="st6"/>
			<rect v:rectContext="textBkgnd" x="25.8268" y="643.285" width="70.0002" height="39.9372" class="st8"/>
			<text x="25.83" y="653.27" class="st9" v:langID="2052"><v:paragraph v:horizAlign="1"/><v:tabList/>交易二进制编码<v:newlineChar/><tspan
						x="30.83" dy="1.331em" class="st12">一级账户身份<v:newlineChar/></tspan><tspan x="40.83" dy="1.331em"
						class="st12">算法类型</tspan></text>		</g>
		<g id="shape492-169" v:mID="492" v:groupContext="shape" v:layerMember="0" transform="translate(258.597,-326.001)">
			<title>动态连接线.492</title>
			<desc>发送签名后的 交易二进制</desc>
			<v:userDefs>
				<v:ud v:nameU="IsReturn" v:prompt="" v:val="VT0(0):5"/>
				<v:ud v:nameU="IsAsync" v:prompt="" v:val="VT0(0):26"/>
				<v:ud v:nameU="IsSelfMessage" v:prompt="" v:val="VT0(0):5"/>
			</v:userDefs>
			<v:textBlock v:margins="rect(4,4,4,4)" v:tabSpace="42.5197"/>
			<v:textRect cx="126.614" cy="649.08" width="70.27" height="34.6285"/>
			<path d="M0 649.08 L244.75 649.08" class="st6"/>
			<rect v:rectContext="textBkgnd" x="96.6142" y="635.768" width="60.0002" height="26.6248" class="st8"/>
			<text x="96.61" y="645.75" class="st9" v:langID="2052"><v:paragraph v:horizAlign="1"/><v:tabList/>发送签名后的<v:newlineChar/><tspan
						x="101.61" dy="1.331em" class="st12">交易二进制</tspan></text>		</g>
		<g id="shape493-177" v:mID="493" v:groupContext="shape" v:layerMember="0" transform="translate(643.4,-316.983)">
			<title>动态连接线.493</title>
			<desc>发送签名后的 交易二进制</desc>
			<v:userDefs>
				<v:ud v:nameU="IsReturn" v:prompt="" v:val="VT0(0):5"/>
				<v:ud v:nameU="IsAsync" v:prompt="" v:val="VT0(0):26"/>
				<v:ud v:nameU="IsSelfMessage" v:prompt="" v:val="VT0(0):5"/>
			</v:userDefs>
			<v:textBlock v:margins="rect(4,4,4,4)" v:tabSpace="42.5197"/>
			<v:textRect cx="65.7874" cy="663.253" width="70.27" height="34.6285"/>
			<path d="M0 662.74 L123.1 663.7" class="st6"/>
			<rect v:rectContext="textBkgnd" x="35.7874" y="649.941" width="60.0002" height="26.6248" class="st8"/>
			<text x="35.79" y="659.93" class="st9" v:langID="2052"><v:paragraph v:horizAlign="1"/><v:tabList/>发送签名后的<v:newlineChar/><tspan
						x="40.79" dy="1.331em" class="st12">交易二进制</tspan></text>		</g>
		<g id="shape494-185" v:mID="494" v:groupContext="shape" v:layerMember="0" transform="translate(767.888,-289.539)">
			<title>动态连接线.494</title>
			<desc>共识上链</desc>
			<v:userDefs>
				<v:ud v:nameU="IsReturn" v:prompt="" v:val="VT0(0):5"/>
				<v:ud v:nameU="IsAsync" v:prompt="" v:val="VT0(0):26"/>
				<v:ud v:nameU="IsSelfMessage" v:prompt="" v:val="VT0(0):5"/>
				<v:ud v:nameU="IsSelfMessage" v:prompt="" v:val="VT0(1):5"/>
			</v:userDefs>
			<v:textBlock v:margins="rect(4,4,4,4)" v:tabSpace="42.5197"/>
			<v:textRect cx="7.08661" cy="670.34" width="50.27" height="21.3161"/>
			<path d="M7.09 656.17 L25.09 656.17 L25.09 684.51 L15.57 684.51" class="st6"/>
			<rect v:rectContext="textBkgnd" x="-12.9133" y="663.684" width="40.0001" height="13.3124" class="st8"/>
			<text x="-12.91" y="673.67" class="st9" v:langID="2052"><v:paragraph v:horizAlign="1"/><v:tabList/>共识上链</text>		</g>
		<g id="shape495-192" v:mID="495" v:groupContext="shape" v:layerMember="0" transform="translate(774.975,-231.943)">
			<title>动态连接线.495</title>
			<desc>交易回执 + 交易存证证明</desc>
			<v:userDefs>
				<v:ud v:nameU="IsReturn" v:prompt="" v:val="VT0(0):5"/>
				<v:ud v:nameU="IsAsync" v:prompt="" v:val="VT0(0):26"/>
				<v:ud v:nameU="IsSelfMessage" v:prompt="" v:val="VT0(0):5"/>
			</v:userDefs>
			<v:textBlock v:margins="rect(4,4,4,4)" v:tabSpace="42.5197"/>
			<v:textRect cx="-65.7874" cy="649.08" width="70.27" height="34.6285"/>
			<path d="M0 649.59 L-123.1 648.63" class="st6"/>
			<rect v:rectContext="textBkgnd" x="-95.7874" y="635.768" width="60.0002" height="26.6248" class="st8"/>
			<text x="-89.41" y="645.75" class="st9" v:langID="2052"><v:paragraph v:horizAlign="1"/><v:tabList/>交易回执<tspan
						class="st10"> </tspan><tspan class="st10">+<v:newlineChar/></tspan><tspan x="-95.79" dy="1.331em"
						class="st12">交易存证证明</tspan></text>		</g>
		<g id="shape496-202" v:mID="496" v:groupContext="shape" v:layerMember="0" transform="translate(774.975,-195.093)">
			<title>动态连接线.496</title>
			<desc>同步区块头异步</desc>
			<v:userDefs>
				<v:ud v:nameU="IsReturn" v:prompt="" v:val="VT0(0):5"/>
				<v:ud v:nameU="IsAsync" v:prompt="" v:val="VT0(0):26"/>
				<v:ud v:nameU="IsSelfMessage" v:prompt="" v:val="VT0(0):5"/>
			</v:userDefs>
			<v:textBlock v:margins="rect(4,4,4,4)" v:tabSpace="42.5197"/>
			<v:textRect cx="-65.7874" cy="649.08" width="100.27" height="21.3161"/>
			<path d="M0 649.59 L-123.1 648.63" class="st6"/>
			<rect v:rectContext="textBkgnd" x="-110.787" y="642.424" width="90.0003" height="13.3124" class="st8"/>
			<text x="-110.79" y="652.41" class="st9" v:langID="2052"><v:paragraph v:horizAlign="1"/><v:tabList/>同步区块头（异步）</text>		</g>
		<g id="shape497-209" v:mID="497" v:groupContext="shape" v:layerMember="0" transform="translate(643.4,-212.615)">
			<title>动态连接线.497</title>
			<desc>交易回执 + 交易存证证明</desc>
			<v:userDefs>
				<v:ud v:nameU="IsReturn" v:prompt="" v:val="VT0(0):5"/>
				<v:ud v:nameU="IsAsync" v:prompt="" v:val="VT0(0):26"/>
				<v:ud v:nameU="IsSelfMessage" v:prompt="" v:val="VT0(0):5"/>
			</v:userDefs>
			<v:textBlock v:margins="rect(4,4,4,4)" v:tabSpace="42.5197"/>
			<v:textRect cx="-65.7874" cy="649.08" width="70.27" height="34.6285"/>
			<path d="M0 649.08 L-123.09 649.08" class="st6"/>
			<rect v:rectContext="textBkgnd" x="-95.7874" y="635.768" width="60.0002" height="26.6248" class="st8"/>
			<text x="-89.41" y="645.75" class="st9" v:langID="2052"><v:paragraph v:horizAlign="1"/><v:tabList/>交易回执<tspan
						class="st10"> </tspan><tspan class="st10">+<v:newlineChar/></tspan><tspan x="-95.79" dy="1.331em"
						class="st12">交易存证证明</tspan></text>		</g>
		<g id="shape498-219" v:mID="498" v:groupContext="shape" v:layerMember="0" transform="translate(643.4,-184.269)">
			<title>动态连接线.498</title>
			<desc>同步区块头异步</desc>
			<v:userDefs>
				<v:ud v:nameU="IsReturn" v:prompt="" v:val="VT0(0):5"/>
				<v:ud v:nameU="IsAsync" v:prompt="" v:val="VT0(0):26"/>
				<v:ud v:nameU="IsSelfMessage" v:prompt="" v:val="VT0(0):5"/>
			</v:userDefs>
			<v:textBlock v:margins="rect(4,4,4,4)" v:tabSpace="42.5197"/>
			<v:textRect cx="-65.7874" cy="649.08" width="100.27" height="21.3161"/>
			<path d="M0 649.08 L-123.09 649.08" class="st6"/>
			<rect v:rectContext="textBkgnd" x="-110.787" y="642.424" width="90.0003" height="13.3124" class="st8"/>
			<text x="-110.79" y="652.41" class="st9" v:langID="2052"><v:paragraph v:horizAlign="1"/><v:tabList/>同步区块头（异步）</text>		</g>
		<g id="shape499-226" v:mID="499" v:groupContext="shape" v:layerMember="0" transform="translate(251.51,-165.844)">
			<title>动态连接线.499</title>
			<desc>验证区块头 验证交易存在性</desc>
			<v:userDefs>
				<v:ud v:nameU="IsReturn" v:prompt="" v:val="VT0(0):5"/>
				<v:ud v:nameU="IsAsync" v:prompt="" v:val="VT0(0):26"/>
				<v:ud v:nameU="IsSelfMessage" v:prompt="" v:val="VT0(0):5"/>
				<v:ud v:nameU="IsSelfMessage" v:prompt="" v:val="VT0(1):5"/>
			</v:userDefs>
			<v:textBlock v:margins="rect(4,4,4,4)" v:tabSpace="42.5197"/>
			<v:textRect cx="7.08661" cy="673.175" width="80.27" height="34.6285"/>
			<path d="M7.09 656.17 L25.09 656.17 L25.09 690.18 L15.57 690.18" class="st6"/>
			<rect v:rectContext="textBkgnd" x="-27.9134" y="659.862" width="70.0002" height="26.6248" class="st8"/>
			<text x="-17.91" y="669.85" class="st9" v:langID="2052"><v:paragraph v:horizAlign="1"/><v:tabList/>验证区块头<v:newlineChar/><tspan
						x="-27.91" dy="1.331em" class="st12">验证交易存在性</tspan></text>		</g>
		<g id="shape500-234" v:mID="500" v:groupContext="shape" v:layerMember="0" transform="translate(258.597,-118.557)">
			<title>动态连接线.500</title>
			<desc>发送回执 Receipt</desc>
			<v:userDefs>
				<v:ud v:nameU="IsReturn" v:prompt="" v:val="VT0(0):5"/>
				<v:ud v:nameU="IsAsync" v:prompt="" v:val="VT0(0):26"/>
				<v:ud v:nameU="IsSelfMessage" v:prompt="" v:val="VT0(0):5"/>
			</v:userDefs>
			<v:textBlock v:margins="rect(4,4,4,4)" v:tabSpace="42.5197"/>
			<v:textRect cx="-55.8661" cy="663.253" width="83.04" height="21.3161"/>
			<path d="M0 662.74 L-103.25 663.69" class="st6"/>
			<rect v:rectContext="textBkgnd" x="-92.2507" y="656.597" width="72.7693" height="13.3124" class="st8"/>
			<text x="-92.25" y="666.58" class="st9" v:langID="2052"><v:paragraph v:horizAlign="1"/><v:tabList/>发送回执<tspan
						class="st10"> </tspan><tspan class="st10">Receipt</tspan></text>		</g>
		<g id="shape501-243" v:mID="501" v:groupContext="shape" v:layerMember="0" transform="translate(146.865,-86.8616)">
			<title>动态连接线.501</title>
			<desc>发送回执 Receipt</desc>
			<v:userDefs>
				<v:ud v:nameU="IsReturn" v:prompt="" v:val="VT0(0):5"/>
				<v:ud v:nameU="IsAsync" v:prompt="" v:val="VT0(0):26"/>
				<v:ud v:nameU="IsSelfMessage" v:prompt="" v:val="VT0(0):5"/>
			</v:userDefs>
			<v:textBlock v:margins="rect(4,4,4,4)" v:tabSpace="42.5197"/>
			<v:textRect cx="-55.8661" cy="649.08" width="83.04" height="21.3161"/>
			<path d="M0 649.08 L-103.25 649.08" class="st6"/>
			<rect v:rectContext="textBkgnd" x="-92.2507" y="642.424" width="72.7693" height="13.3124" class="st8"/>
			<text x="-92.25" y="652.41" class="st9" v:langID="2052"><v:paragraph v:horizAlign="1"/><v:tabList/>发送回执<tspan
						class="st10"> </tspan><tspan class="st10">Receipt</tspan></text>		</g>
		<g id="group502-252" transform="translate(344.817,-615.523)" v:mID="502" v:groupContext="group">
			<v:userDefs>
				<v:ud v:nameU="visVersion" v:prompt="" v:val="VT0(15):26"/>
				<v:ud v:nameU="ShowActor" v:prompt="" v:val="VT0(0):5"/>
				<v:ud v:nameU="ShowDestruction" v:prompt="" v:val="VT0(0):5"/>
			</v:userDefs>
			<title>对象生命线.502</title>
			<desc>Account Manager</desc>
			<g id="shape503-253" v:mID="503" v:groupContext="shape" transform="translate(9.92126,-5.66929)">
				<title>工作表.503</title>
				<g id="shadow503-254" v:groupContext="shadow" v:shadowOffsetX="0.345598" v:shadowOffsetY="-1.97279"
						v:shadowType="1" transform="matrix(1,0,0,1,0.345598,1.97279)" class="st1">
					<rect x="0" y="630.655" width="51.0236" height="25.5118" class="st2"/>
				</g>
				<rect x="0" y="630.655" width="51.0236" height="25.5118" class="st3"/>
			</g>
			<g id="shape504-258" v:mID="504" v:groupContext="shape" transform="translate(26.9291,-40.3937)">
				<title>工作表.504</title>
				<g id="shadow504-259" v:groupContext="shadow" v:shadowOffsetX="0.345598" v:shadowOffsetY="-1.97279"
						v:shadowType="1" transform="matrix(1,0,0,1,0.345598,1.97279)" class="st1">
					<path d="M8.5 656.17 a0 0 0 1 1 0 0 a0 0 0 1 1 0 0 Z" class="st2"/>
				</g>
				<path d="M8.5 656.17 a0 0 0 1 1 0 0 a0 0 0 1 1 0 0 Z" class="st3"/>
			</g>
			<g id="shape505-263" v:mID="505" v:groupContext="shape" transform="translate(23.622,614.106)">
				<title>工作表.505</title>
				<g id="shadow505-264" v:groupContext="shadow" v:shadowOffsetX="0.345598" v:shadowOffsetY="-1.97279"
						v:shadowType="1" transform="matrix(1,0,0,1,0.345598,1.97279)" class="st1"/>
			</g>
			<g id="shape506-268" v:mID="506" v:groupContext="shape" transform="translate(691.6,656.167) rotate(90)">
				<title>工作表.506</title>
				<path d="M0 656.17 L592.44 656.17" class="st4"/>
			</g>
			<g id="shape502-271" v:mID="502" v:groupContext="groupContent">
				<v:textBlock v:margins="rect(4,4,4,4)" v:tabSpace="42.5197"/>
				<v:textRect cx="35.4331" cy="637.742" width="70.87" height="36.8504"/>
				<g id="shadow502-272" v:groupContext="shadow" v:shadowOffsetX="0.345598" v:shadowOffsetY="-1.97279"
						v:shadowType="1" transform="matrix(1,0,0,1,0.345598,1.97279)" class="st1">
					<rect x="0" y="619.316" width="70.8661" height="36.8504" class="st2"/>
				</g>
				<rect x="0" y="619.316" width="70.8661" height="36.8504" class="st3"/>
				<text x="15.03" y="634.14" class="st5" v:langID="2052"><v:paragraph v:horizAlign="1"/><v:tabList/>Account<v:newlineChar/><tspan
							x="13.05" dy="1.2em" class="st12">Manager</tspan></text>			</g>
		</g>
		<g id="shape507-278" v:mID="507" v:groupContext="shape" v:layerMember="0" transform="translate(387.337,-417.098)">
			<title>动态连接线.507</title>
			<desc>选择相应算法的二级账户签名</desc>
			<v:userDefs>
				<v:ud v:nameU="IsReturn" v:prompt="" v:val="VT0(0):5"/>
				<v:ud v:nameU="IsAsync" v:prompt="" v:val="VT0(0):26"/>
				<v:ud v:nameU="IsSelfMessage" v:prompt="" v:val="VT0(0):5"/>
				<v:ud v:nameU="IsSelfMessage" v:prompt="" v:val="VT0(1):5"/>
			</v:userDefs>
			<v:textBlock v:margins="rect(4,4,4,4)" v:tabSpace="42.5197"/>
			<v:textRect cx="-7.08661" cy="674.592" width="140.27" height="21.3161"/>
			<path d="M-7.09 656.17 L10.91 656.17 L10.91 693.02 L1.39 693.02" class="st6"/>
			<rect v:rectContext="textBkgnd" x="-72.0867" y="667.936" width="130" height="13.3124" class="st8"/>
			<text x="-72.09" y="677.92" class="st9" v:langID="2052"><v:paragraph v:horizAlign="1"/><v:tabList/>选择相应算法的二级账户签名</text>		</g>
		<g id="shape508-285" v:mID="508" v:groupContext="shape" v:layerMember="0" transform="translate(380.25,-353.833)">
			<title>动态连接线.508</title>
			<desc>签名内容</desc>
			<v:userDefs>
				<v:ud v:nameU="IsReturn" v:prompt="" v:val="VT0(0):5"/>
				<v:ud v:nameU="IsAsync" v:prompt="" v:val="VT0(0):26"/>
				<v:ud v:nameU="IsSelfMessage" v:prompt="" v:val="VT0(0):5"/>
			</v:userDefs>
			<v:textBlock v:margins="rect(4,4,4,4)" v:tabSpace="42.5197"/>
			<v:textRect cx="-60.8268" cy="649.08" width="50.27" height="21.3161"/>
			<path d="M0 649.59 L-113.17 648.64" class="st6"/>
			<rect v:rectContext="textBkgnd" x="-80.8267" y="642.424" width="40.0001" height="13.3124" class="st8"/>
			<text x="-80.83" y="652.41" class="st9" v:langID="2052"><v:paragraph v:horizAlign="1"/><v:tabList/>签名内容</text>		</g>
		<g id="group509-292" transform="translate(476.392,-616.552)" v:mID="509" v:groupContext="group">
			<v:userDefs>
				<v:ud v:nameU="visVersion" v:prompt="" v:val="VT0(15):26"/>
				<v:ud v:nameU="ShowActor" v:prompt="" v:val="VT0(0):5"/>
				<v:ud v:nameU="ShowDestruction" v:prompt="" v:val="VT0(0):5"/>
			</v:userDefs>
			<title>对象生命线.509</title>
			<desc>Connection (Remote)</desc>
			<g id="shape510-293" v:mID="510" v:groupContext="shape" transform="translate(9.92126,-5.15458)">
				<title>工作表.510</title>
				<g id="shadow510-294" v:groupContext="shadow" v:shadowOffsetX="0.345598" v:shadowOffsetY="-1.97279"
						v:shadowType="1" transform="matrix(1,0,0,1,0.345598,1.97279)" class="st1">
					<rect x="0" y="630.655" width="51.0236" height="25.5118" class="st2"/>
				</g>
				<rect x="0" y="630.655" width="51.0236" height="25.5118" class="st3"/>
			</g>
			<g id="shape511-298" v:mID="511" v:groupContext="shape" transform="translate(26.9291,-39.3643)">
				<title>工作表.511</title>
				<g id="shadow511-299" v:groupContext="shadow" v:shadowOffsetX="0.345598" v:shadowOffsetY="-1.97279"
						v:shadowType="1" transform="matrix(1,0,0,1,0.345598,1.97279)" class="st1">
					<path d="M8.5 656.17 a0 0 0 1 1 0 0 a0 0 0 1 1 0 0 Z" class="st2"/>
				</g>
				<path d="M8.5 656.17 a0 0 0 1 1 0 0 a0 0 0 1 1 0 0 Z" class="st3"/>
			</g>
			<g id="shape512-303" v:mID="512" v:groupContext="shape" transform="translate(23.622,614.768)">
				<title>工作表.512</title>
				<g id="shadow512-304" v:groupContext="shadow" v:shadowOffsetX="0.345598" v:shadowOffsetY="-1.97279"
						v:shadowType="1" transform="matrix(1,0,0,1,0.345598,1.97279)" class="st1"/>
			</g>
			<g id="shape513-308" v:mID="513" v:groupContext="shape" transform="translate(691.6,656.167) rotate(90)">
				<title>工作表.513</title>
				<path d="M0 656.17 L593.47 656.17" class="st4"/>
			</g>
			<g id="shape509-311" v:mID="509" v:groupContext="groupContent">
				<v:textBlock v:margins="rect(4,4,4,4)" v:tabSpace="42.5197"/>
				<v:textRect cx="35.4331" cy="638.256" width="70.87" height="35.821"/>
				<g id="shadow509-312" v:groupContext="shadow" v:shadowOffsetX="0.345598" v:shadowOffsetY="-1.97279"
						v:shadowType="1" transform="matrix(1,0,0,1,0.345598,1.97279)" class="st1">
					<rect x="0" y="620.346" width="70.8661" height="35.821" class="st2"/>
				</g>
				<rect x="0" y="620.346" width="70.8661" height="35.821" class="st3"/>
				<text x="7.06" y="634.66" class="st5" v:langID="2052"><v:paragraph v:horizAlign="1"/><v:tabList/>Connection<v:newlineChar/><tspan
							x="12.09" dy="1.2em" class="st12">(</tspan>Remote)</text>			</g>
		</g>
		<g id="shape514-318" v:mID="514" v:groupContext="shape" v:layerMember="0" transform="translate(511.825,-340.175)">
			<title>动态连接线.514</title>
			<desc>直接透传</desc>
			<v:userDefs>
				<v:ud v:nameU="IsReturn" v:prompt="" v:val="VT0(0):5"/>
				<v:ud v:nameU="IsAsync" v:prompt="" v:val="VT0(0):26"/>
				<v:ud v:nameU="IsSelfMessage" v:prompt="" v:val="VT0(0):5"/>
			</v:userDefs>
			<v:textBlock v:margins="rect(4,4,4,4)" v:tabSpace="42.5197"/>
			<v:textRect cx="65.7874" cy="663.253" width="50.27" height="21.3161"/>
			<path d="M0 663.25 L123.09 663.25" class="st6"/>
			<rect v:rectContext="textBkgnd" x="45.7874" y="656.597" width="40.0001" height="13.3124" class="st8"/>
			<text x="45.79" y="666.58" class="st13" v:langID="2052"><v:paragraph v:horizAlign="1"/><v:tabList/>直接透传</text>		</g>
		<g id="shape515-325" v:mID="515" v:groupContext="shape" v:layerMember="0" transform="translate(511.825,-226.789)">
			<title>动态连接线.515</title>
			<desc>直接透传</desc>
			<v:userDefs>
				<v:ud v:nameU="IsReturn" v:prompt="" v:val="VT0(0):5"/>
				<v:ud v:nameU="IsAsync" v:prompt="" v:val="VT0(0):26"/>
				<v:ud v:nameU="IsSelfMessage" v:prompt="" v:val="VT0(0):5"/>
			</v:userDefs>
			<v:textBlock v:margins="rect(4,4,4,4)" v:tabSpace="42.5197"/>
			<v:textRect cx="-126.614" cy="663.253" width="50.27" height="21.3161"/>
			<path d="M0 663.25 L-244.75 663.25" class="st6"/>
			<rect v:rectContext="textBkgnd" x="-146.614" y="656.597" width="40.0001" height="13.3124" class="st8"/>
			<text x="-146.61" y="666.58" class="st13" v:langID="2052"><v:paragraph v:horizAlign="1"/><v:tabList/>直接透传</text>		</g>
		<g id="shape516-332" v:mID="516" v:groupContext="shape" v:layerMember="0" transform="translate(511.825,-198.442)">
			<title>动态连接线.516</title>
			<desc>直接透传</desc>
			<v:userDefs>
				<v:ud v:nameU="IsReturn" v:prompt="" v:val="VT0(0):5"/>
				<v:ud v:nameU="IsAsync" v:prompt="" v:val="VT0(0):26"/>
				<v:ud v:nameU="IsSelfMessage" v:prompt="" v:val="VT0(0):5"/>
			</v:userDefs>
			<v:textBlock v:margins="rect(4,4,4,4)" v:tabSpace="42.5197"/>
			<v:textRect cx="-126.614" cy="663.253" width="50.27" height="21.3161"/>
			<path d="M0 663.25 L-244.75 663.25" class="st6"/>
			<rect v:rectContext="textBkgnd" x="-146.614" y="656.597" width="40.0001" height="13.3124" class="st8"/>
			<text x="-146.61" y="666.58" class="st13" v:langID="2052"><v:paragraph v:horizAlign="1"/><v:tabList/>直接透传</text>		</g>
	</g>
</svg>
