<?xml version="1.0" encoding="UTF-8" standalone="no"?>
<!DOCTYPE svg PUBLIC "-//W3C//DTD SVG 1.1//EN" "http://www.w3.org/Graphics/SVG/1.1/DTD/svg11.dtd">
<!-- 由 Microsoft Visio, SVG Export 生成 flow1.svg 页-1 -->
<svg xmlns="http://www.w3.org/2000/svg" xmlns:xlink="http://www.w3.org/1999/xlink" xmlns:ev="http://www.w3.org/2001/xml-events"
		xmlns:v="http://schemas.microsoft.com/visio/2003/SVGExtensions/" width="9.82475in" height="9.09374in"
		viewBox="0 0 707.382 654.749" xml:space="preserve" color-interpolation-filters="sRGB" class="st12">
	<v:documentProperties v:langID="2052" v:metric="true" v:viewMarkup="false"/>

	<style type="text/css">
	<![CDATA[
		.st1 {visibility:visible}
		.st2 {fill:#5b9bd5;fill-opacity:0.22;filter:url(#filter_2);stroke:#5b9bd5;stroke-opacity:0.22}
		.st3 {fill:#5b9bd5;stroke:#c7c8c8;stroke-width:0.25}
		.st4 {stroke:#5b9bd5;stroke-dasharray:7,5;stroke-linecap:round;stroke-linejoin:round;stroke-width:1}
		.st5 {fill:#feffff;font-family:Calibri;font-size:1.00001em;font-weight:bold}
		.st6 {marker-end:url(#mrkr4-106);stroke:#5b9bd5;stroke-linecap:round;stroke-linejoin:round;stroke-width:1}
		.st7 {fill:#5b9bd5;fill-opacity:1;stroke:#5b9bd5;stroke-opacity:1;stroke-width:0.23584905660377}
		.st8 {fill:#ffffff;stroke:none;stroke-linecap:butt;stroke-width:7.2}
		.st9 {fill:#4f87bb;font-family:黑体;font-size:0.833336em}
		.st10 {font-family:Calibri;font-size:1em}
		.st11 {font-size:1em}
		.st12 {fill:none;fill-rule:evenodd;font-size:12px;overflow:visible;stroke-linecap:square;stroke-miterlimit:3}
	]]>
	</style>

	<defs id="Markers">
		<g id="lend4">
			<path d="M 2 1 L 0 0 L 2 -1 L 2 1 " style="stroke:none"/>
		</g>
		<marker id="mrkr4-106" class="st7" v:arrowType="4" v:arrowSize="3" v:setback="8.48" refX="-8.48" orient="auto"
				markerUnits="strokeWidth" overflow="visible">
			<use xlink:href="#lend4" transform="scale(-4.24,-4.24) "/>
		</marker>
	</defs>
	<defs id="Filters">
		<filter id="filter_2">
			<feGaussianBlur stdDeviation="2"/>
		</filter>
	</defs>
	<g v:mID="0" v:index="1" v:groupContext="foregroundPage">
		<title>页-1</title>
		<v:pageProperties v:drawingScale="0.0393701" v:pageScale="0.0393701" v:drawingUnits="24" v:shadowOffsetX="8.50394"
				v:shadowOffsetY="-8.50394"/>
		<v:layer v:name="连接线" v:index="0"/>
		<g id="group85-1" transform="translate(126.318,-614.106)" v:mID="85" v:groupContext="group">
			<v:userDefs>
				<v:ud v:nameU="visVersion" v:prompt="" v:val="VT0(15):26"/>
				<v:ud v:nameU="ShowActor" v:prompt="" v:val="VT0(0):5"/>
				<v:ud v:nameU="ShowDestruction" v:prompt="" v:val="VT0(0):5"/>
			</v:userDefs>
			<title>对象生命线.94</title>
			<desc>Router</desc>
			<g id="shape86-2" v:mID="86" v:groupContext="shape" transform="translate(0,-5.66929)">
				<title>工作表.86</title>
				<g id="shadow86-3" v:groupContext="shadow" v:shadowOffsetX="0.345598" v:shadowOffsetY="-1.97279" v:shadowType="1"
						transform="matrix(1,0,0,1,0.345598,1.97279)" class="st1">
					<rect x="0" y="629.238" width="51.0236" height="25.5118" class="st2"/>
				</g>
				<rect x="0" y="629.238" width="51.0236" height="25.5118" class="st3"/>
			</g>
			<g id="shape87-7" v:mID="87" v:groupContext="shape" transform="translate(17.0079,-40.3937)">
				<title>工作表.87</title>
				<g id="shadow87-8" v:groupContext="shadow" v:shadowOffsetX="0.345598" v:shadowOffsetY="-1.97279" v:shadowType="1"
						transform="matrix(1,0,0,1,0.345598,1.97279)" class="st1">
					<path d="M8.5 654.75 a0 0 0 1 1 0 0 a0 0 0 1 1 0 0 Z" class="st2"/>
				</g>
				<path d="M8.5 654.75 a0 0 0 1 1 0 0 a0 0 0 1 1 0 0 Z" class="st3"/>
			</g>
			<g id="shape88-12" v:mID="88" v:groupContext="shape" transform="translate(17.0079,614.106)">
				<title>工作表.88</title>
				<g id="shadow88-13" v:groupContext="shadow" v:shadowOffsetX="0.345598" v:shadowOffsetY="-1.97279" v:shadowType="1"
						transform="matrix(1,0,0,1,0.345598,1.97279)" class="st1"/>
			</g>
			<g id="shape89-17" v:mID="89" v:groupContext="shape" transform="translate(680.261,654.749) rotate(90)">
				<title>工作表.89</title>
				<path d="M0 654.75 L592.44 654.75" class="st4"/>
			</g>
			<g id="shape85-20" v:mID="85" v:groupContext="groupContent">
				<v:textBlock v:margins="rect(4,4,4,4)" v:tabSpace="42.5197"/>
				<v:textRect cx="25.5118" cy="636.324" width="51.03" height="36.8504"/>
				<g id="shadow85-21" v:groupContext="shadow" v:shadowOffsetX="0.345598" v:shadowOffsetY="-1.97279" v:shadowType="1"
						transform="matrix(1,0,0,1,0.345598,1.97279)" class="st1">
					<rect x="0" y="617.899" width="51.0236" height="36.8504" class="st2"/>
				</g>
				<rect x="0" y="617.899" width="51.0236" height="36.8504" class="st3"/>
				<text x="8.45" y="639.92" class="st5" v:langID="2052"><v:paragraph v:horizAlign="1"/><v:tabList/>Router</text>			</g>
		</g>
		<g id="group90-26" transform="translate(243.016,-614.106)" v:mID="90" v:groupContext="group">
			<v:userDefs>
				<v:ud v:nameU="visVersion" v:prompt="" v:val="VT0(15):26"/>
				<v:ud v:nameU="ShowActor" v:prompt="" v:val="VT0(0):5"/>
				<v:ud v:nameU="ShowDestruction" v:prompt="" v:val="VT0(0):5"/>
			</v:userDefs>
			<title>对象生命线.99</title>
			<desc>Driver</desc>
			<g id="shape91-27" v:mID="91" v:groupContext="shape" transform="translate(0,-5.66929)">
				<title>工作表.91</title>
				<g id="shadow91-28" v:groupContext="shadow" v:shadowOffsetX="0.345598" v:shadowOffsetY="-1.97279" v:shadowType="1"
						transform="matrix(1,0,0,1,0.345598,1.97279)" class="st1">
					<rect x="0" y="629.238" width="51.0236" height="25.5118" class="st2"/>
				</g>
				<rect x="0" y="629.238" width="51.0236" height="25.5118" class="st3"/>
			</g>
			<g id="shape92-32" v:mID="92" v:groupContext="shape" transform="translate(17.0079,-40.3937)">
				<title>工作表.92</title>
				<g id="shadow92-33" v:groupContext="shadow" v:shadowOffsetX="0.345598" v:shadowOffsetY="-1.97279" v:shadowType="1"
						transform="matrix(1,0,0,1,0.345598,1.97279)" class="st1">
					<path d="M8.5 654.75 a0 0 0 1 1 0 0 a0 0 0 1 1 0 0 Z" class="st2"/>
				</g>
				<path d="M8.5 654.75 a0 0 0 1 1 0 0 a0 0 0 1 1 0 0 Z" class="st3"/>
			</g>
			<g id="shape93-37" v:mID="93" v:groupContext="shape" transform="translate(17.0079,614.106)">
				<title>工作表.93</title>
				<g id="shadow93-38" v:groupContext="shadow" v:shadowOffsetX="0.345598" v:shadowOffsetY="-1.97279" v:shadowType="1"
						transform="matrix(1,0,0,1,0.345598,1.97279)" class="st1"/>
			</g>
			<g id="shape94-42" v:mID="94" v:groupContext="shape" transform="translate(680.261,654.749) rotate(90)">
				<title>工作表.94</title>
				<path d="M0 654.75 L592.44 654.75" class="st4"/>
			</g>
			<g id="shape90-45" v:mID="90" v:groupContext="groupContent">
				<v:textBlock v:margins="rect(4,4,4,4)" v:tabSpace="42.5197"/>
				<v:textRect cx="25.5118" cy="636.324" width="51.03" height="36.8504"/>
				<g id="shadow90-46" v:groupContext="shadow" v:shadowOffsetX="0.345598" v:shadowOffsetY="-1.97279" v:shadowType="1"
						transform="matrix(1,0,0,1,0.345598,1.97279)" class="st1">
					<rect x="0" y="617.899" width="51.0236" height="36.8504" class="st2"/>
				</g>
				<rect x="0" y="617.899" width="51.0236" height="36.8504" class="st3"/>
				<text x="10.13" y="639.92" class="st5" v:langID="2052"><v:paragraph v:horizAlign="1"/><v:tabList/>Driver</text>			</g>
		</g>
		<g id="group95-51" transform="translate(9.62044,-614.106)" v:mID="95" v:groupContext="group">
			<v:userDefs>
				<v:ud v:nameU="visVersion" v:prompt="" v:val="VT0(15):26"/>
				<v:ud v:nameU="ShowActor" v:prompt="" v:val="VT0(0):5"/>
				<v:ud v:nameU="ShowDestruction" v:prompt="" v:val="VT0(0):5"/>
			</v:userDefs>
			<title>对象生命线.104</title>
			<desc>SDK</desc>
			<g id="shape96-52" v:mID="96" v:groupContext="shape" transform="translate(0,-5.66929)">
				<title>工作表.96</title>
				<g id="shadow96-53" v:groupContext="shadow" v:shadowOffsetX="0.345598" v:shadowOffsetY="-1.97279" v:shadowType="1"
						transform="matrix(1,0,0,1,0.345598,1.97279)" class="st1">
					<rect x="0" y="629.238" width="51.0236" height="25.5118" class="st2"/>
				</g>
				<rect x="0" y="629.238" width="51.0236" height="25.5118" class="st3"/>
			</g>
			<g id="shape97-57" v:mID="97" v:groupContext="shape" transform="translate(17.0079,-40.3937)">
				<title>工作表.97</title>
				<g id="shadow97-58" v:groupContext="shadow" v:shadowOffsetX="0.345598" v:shadowOffsetY="-1.97279" v:shadowType="1"
						transform="matrix(1,0,0,1,0.345598,1.97279)" class="st1">
					<path d="M8.5 654.75 a0 0 0 1 1 0 0 a0 0 0 1 1 0 0 Z" class="st2"/>
				</g>
				<path d="M8.5 654.75 a0 0 0 1 1 0 0 a0 0 0 1 1 0 0 Z" class="st3"/>
			</g>
			<g id="shape98-62" v:mID="98" v:groupContext="shape" transform="translate(17.0079,614.106)">
				<title>工作表.98</title>
				<g id="shadow98-63" v:groupContext="shadow" v:shadowOffsetX="0.345598" v:shadowOffsetY="-1.97279" v:shadowType="1"
						transform="matrix(1,0,0,1,0.345598,1.97279)" class="st1"/>
			</g>
			<g id="shape99-67" v:mID="99" v:groupContext="shape" transform="translate(680.261,654.749) rotate(90)">
				<title>工作表.99</title>
				<path d="M0 654.75 L592.44 654.75" class="st4"/>
			</g>
			<g id="shape95-70" v:mID="95" v:groupContext="groupContent">
				<v:textBlock v:margins="rect(4,4,4,4)" v:tabSpace="42.5197"/>
				<v:textRect cx="25.5118" cy="636.324" width="51.03" height="36.8504"/>
				<g id="shadow95-71" v:groupContext="shadow" v:shadowOffsetX="0.345598" v:shadowOffsetY="-1.97279" v:shadowType="1"
						transform="matrix(1,0,0,1,0.345598,1.97279)" class="st1">
					<rect x="0" y="617.899" width="51.0236" height="36.8504" class="st2"/>
				</g>
				<rect x="0" y="617.899" width="51.0236" height="36.8504" class="st3"/>
				<text x="15.61" y="639.92" class="st5" v:langID="2052"><v:paragraph v:horizAlign="1"/><v:tabList/>SDK</text>			</g>
		</g>
		<g id="group100-76" transform="translate(496.255,-614.106)" v:mID="100" v:groupContext="group">
			<v:userDefs>
				<v:ud v:nameU="visVersion" v:prompt="" v:val="VT0(15):26"/>
				<v:ud v:nameU="ShowActor" v:prompt="" v:val="VT0(0):5"/>
				<v:ud v:nameU="ShowDestruction" v:prompt="" v:val="VT0(0):5"/>
			</v:userDefs>
			<title>对象生命线.369</title>
			<desc>Connection</desc>
			<g id="shape101-77" v:mID="101" v:groupContext="shape" transform="translate(9.92126,-5.66929)">
				<title>工作表.101</title>
				<g id="shadow101-78" v:groupContext="shadow" v:shadowOffsetX="0.345598" v:shadowOffsetY="-1.97279" v:shadowType="1"
						transform="matrix(1,0,0,1,0.345598,1.97279)" class="st1">
					<rect x="0" y="629.238" width="51.0236" height="25.5118" class="st2"/>
				</g>
				<rect x="0" y="629.238" width="51.0236" height="25.5118" class="st3"/>
			</g>
			<g id="shape102-82" v:mID="102" v:groupContext="shape" transform="translate(26.9291,-40.3937)">
				<title>工作表.102</title>
				<g id="shadow102-83" v:groupContext="shadow" v:shadowOffsetX="0.345598" v:shadowOffsetY="-1.97279" v:shadowType="1"
						transform="matrix(1,0,0,1,0.345598,1.97279)" class="st1">
					<path d="M8.5 654.75 a0 0 0 1 1 0 0 a0 0 0 1 1 0 0 Z" class="st2"/>
				</g>
				<path d="M8.5 654.75 a0 0 0 1 1 0 0 a0 0 0 1 1 0 0 Z" class="st3"/>
			</g>
			<g id="shape103-87" v:mID="103" v:groupContext="shape" transform="translate(23.622,614.106)">
				<title>工作表.103</title>
				<g id="shadow103-88" v:groupContext="shadow" v:shadowOffsetX="0.345598" v:shadowOffsetY="-1.97279" v:shadowType="1"
						transform="matrix(1,0,0,1,0.345598,1.97279)" class="st1"/>
			</g>
			<g id="shape104-92" v:mID="104" v:groupContext="shape" transform="translate(690.183,654.749) rotate(90)">
				<title>工作表.104</title>
				<path d="M0 654.75 L592.44 654.75" class="st4"/>
			</g>
			<g id="shape100-95" v:mID="100" v:groupContext="groupContent">
				<v:textBlock v:margins="rect(4,4,4,4)" v:tabSpace="42.5197"/>
				<v:textRect cx="35.4331" cy="636.324" width="70.87" height="36.8504"/>
				<g id="shadow100-96" v:groupContext="shadow" v:shadowOffsetX="0.345598" v:shadowOffsetY="-1.97279" v:shadowType="1"
						transform="matrix(1,0,0,1,0.345598,1.97279)" class="st1">
					<rect x="0" y="617.899" width="70.8661" height="36.8504" class="st2"/>
				</g>
				<rect x="0" y="617.899" width="70.8661" height="36.8504" class="st3"/>
				<text x="7.06" y="639.92" class="st5" v:langID="2052"><v:paragraph v:horizAlign="1"/><v:tabList/>Connection</text>			</g>
		</g>
		<g id="shape105-101" v:mID="105" v:groupContext="shape" v:layerMember="0" transform="translate(35.1322,-521.98)">
			<title>动态连接线.105</title>
			<desc>发送 Transaction</desc>
			<v:userDefs>
				<v:ud v:nameU="IsReturn" v:prompt="" v:val="VT0(0):5"/>
				<v:ud v:nameU="IsAsync" v:prompt="" v:val="VT0(0):26"/>
				<v:ud v:nameU="IsSelfMessage" v:prompt="" v:val="VT0(0):5"/>
			</v:userDefs>
			<v:textBlock v:margins="rect(4,4,4,4)" v:tabSpace="42.5197"/>
			<v:textRect cx="58.3489" cy="647.663" width="80.04" height="21.3161"/>
			<path d="M0 647.66 L108.22 647.66" class="st6"/>
			<rect v:rectContext="textBkgnd" x="23.4661" y="641.007" width="69.7659" height="13.3124" class="st8"/>
			<text x="23.47" y="650.99" class="st9" v:langID="2052"><v:paragraph v:horizAlign="1"/><v:tabList/>发送<tspan class="st10"> </tspan><tspan
						class="st10">Transaction</tspan></text>		</g>
		<g id="shape106-111" v:mID="106" v:groupContext="shape" v:layerMember="0" transform="translate(144.744,-500.72)">
			<title>动态连接线.378</title>
			<desc>验证一级账户签名</desc>
			<v:userDefs>
				<v:ud v:nameU="IsReturn" v:prompt="" v:val="VT0(0):5"/>
				<v:ud v:nameU="IsAsync" v:prompt="" v:val="VT0(0):26"/>
				<v:ud v:nameU="IsSelfMessage" v:prompt="" v:val="VT0(0):5"/>
				<v:ud v:nameU="IsSelfMessage" v:prompt="" v:val="VT0(1):5"/>
			</v:userDefs>
			<v:textBlock v:margins="rect(4,4,4,4)" v:tabSpace="42.5197"/>
			<v:textRect cx="7.08661" cy="668.923" width="90.27" height="21.3161"/>
			<path d="M7.09 654.75 L25.09 654.75 L25.09 683.1 L15.57 683.1" class="st6"/>
			<rect v:rectContext="textBkgnd" x="-32.9134" y="662.267" width="80.0002" height="13.3124" class="st8"/>
			<text x="-32.91" y="672.25" class="st9" v:langID="2052"><v:paragraph v:horizAlign="1"/><v:tabList/>验证一级账户签名</text>		</g>
		<g id="group115-118" transform="translate(632.795,-614.106)" v:mID="115" v:groupContext="group">
			<v:userDefs>
				<v:ud v:nameU="visVersion" v:prompt="" v:val="VT0(15):26"/>
				<v:ud v:nameU="ShowActor" v:prompt="" v:val="VT0(0):5"/>
				<v:ud v:nameU="ShowDestruction" v:prompt="" v:val="VT0(0):5"/>
			</v:userDefs>
			<title>对象生命线.115</title>
			<desc>Blockchain</desc>
			<g id="shape116-119" v:mID="116" v:groupContext="shape" transform="translate(9.92126,-5.66929)">
				<title>工作表.116</title>
				<g id="shadow116-120" v:groupContext="shadow" v:shadowOffsetX="0.345598" v:shadowOffsetY="-1.97279"
						v:shadowType="1" transform="matrix(1,0,0,1,0.345598,1.97279)" class="st1">
					<rect x="0" y="629.238" width="51.0236" height="25.5118" class="st2"/>
				</g>
				<rect x="0" y="629.238" width="51.0236" height="25.5118" class="st3"/>
			</g>
			<g id="shape117-124" v:mID="117" v:groupContext="shape" transform="translate(26.9291,-40.3937)">
				<title>工作表.117</title>
				<g id="shadow117-125" v:groupContext="shadow" v:shadowOffsetX="0.345598" v:shadowOffsetY="-1.97279"
						v:shadowType="1" transform="matrix(1,0,0,1,0.345598,1.97279)" class="st1">
					<path d="M8.5 654.75 a0 0 0 1 1 0 0 a0 0 0 1 1 0 0 Z" class="st2"/>
				</g>
				<path d="M8.5 654.75 a0 0 0 1 1 0 0 a0 0 0 1 1 0 0 Z" class="st3"/>
			</g>
			<g id="shape118-129" v:mID="118" v:groupContext="shape" transform="translate(23.622,614.106)">
				<title>工作表.118</title>
				<g id="shadow118-130" v:groupContext="shadow" v:shadowOffsetX="0.345598" v:shadowOffsetY="-1.97279"
						v:shadowType="1" transform="matrix(1,0,0,1,0.345598,1.97279)" class="st1"/>
			</g>
			<g id="shape119-134" v:mID="119" v:groupContext="shape" transform="translate(690.183,654.749) rotate(90)">
				<title>工作表.119</title>
				<path d="M0 654.75 L592.44 654.75" class="st4"/>
			</g>
			<g id="shape115-137" v:mID="115" v:groupContext="groupContent">
				<v:textBlock v:margins="rect(4,4,4,4)" v:tabSpace="42.5197"/>
				<v:textRect cx="35.4331" cy="636.324" width="70.87" height="36.8504"/>
				<g id="shadow115-138" v:groupContext="shadow" v:shadowOffsetX="0.345598" v:shadowOffsetY="-1.97279"
						v:shadowType="1" transform="matrix(1,0,0,1,0.345598,1.97279)" class="st1">
					<rect x="0" y="617.899" width="70.8661" height="36.8504" class="st2"/>
				</g>
				<rect x="0" y="617.899" width="70.8661" height="36.8504" class="st3"/>
				<text x="8.59" y="639.92" class="st5" v:langID="2052"><v:paragraph v:horizAlign="1"/><v:tabList/>Blockchain</text>			</g>
		</g>
		<g id="shape121-143" v:mID="121" v:groupContext="shape" v:layerMember="0" transform="translate(28.0456,-597.098)">
			<title>动态连接线.121</title>
			<desc>一级账户签名</desc>
			<v:userDefs>
				<v:ud v:nameU="IsReturn" v:prompt="" v:val="VT0(0):5"/>
				<v:ud v:nameU="IsAsync" v:prompt="" v:val="VT0(0):26"/>
				<v:ud v:nameU="IsSelfMessage" v:prompt="" v:val="VT0(0):5"/>
				<v:ud v:nameU="IsSelfMessage" v:prompt="" v:val="VT0(1):5"/>
			</v:userDefs>
			<v:textBlock v:margins="rect(4,4,4,4)" v:tabSpace="42.5197"/>
			<v:textRect cx="7.08661" cy="676.009" width="70.27" height="21.3161"/>
			<path d="M7.09 654.75 L25.09 654.75 L25.09 697.27 L15.57 697.27" class="st6"/>
			<rect v:rectContext="textBkgnd" x="-22.9134" y="669.353" width="60.0002" height="13.3124" class="st8"/>
			<text x="-22.91" y="679.34" class="st9" v:langID="2052"><v:paragraph v:horizAlign="1"/><v:tabList/>一级账户签名</text>		</g>
		<g id="shape122-150" v:mID="122" v:groupContext="shape" v:layerMember="0" transform="translate(151.83,-459.618)">
			<title>动态连接线.122</title>
			<desc>发送 Transaction 一级账户身份</desc>
			<v:userDefs>
				<v:ud v:nameU="IsReturn" v:prompt="" v:val="VT0(0):5"/>
				<v:ud v:nameU="IsAsync" v:prompt="" v:val="VT0(0):26"/>
				<v:ud v:nameU="IsSelfMessage" v:prompt="" v:val="VT0(0):5"/>
			</v:userDefs>
			<v:textBlock v:margins="rect(4,4,4,4)" v:tabSpace="42.5197"/>
			<v:textRect cx="58.3489" cy="661.836" width="82.3" height="34.6285"/>
			<path d="M0 661.84 L108.22 661.84" class="st6"/>
			<rect v:rectContext="textBkgnd" x="23.4659" y="648.524" width="69.7659" height="26.6248" class="st8"/>
			<text x="23.47" y="658.51" class="st9" v:langID="2052"><v:paragraph v:horizAlign="1"/><v:tabList/>发送<tspan class="st10"> </tspan><tspan
						class="st10">Transaction <v:newlineChar/></tspan><tspan x="28.35" dy="1.331em" class="st11">一级账户身份</tspan> </text>		</g>
		<g id="shape123-160" v:mID="123" v:groupContext="shape" v:layerMember="0" transform="translate(268.528,-422.767)">
			<title>动态连接线.123</title>
			<desc>交易二进制编码 一级账户身份 算法类型</desc>
			<v:userDefs>
				<v:ud v:nameU="IsReturn" v:prompt="" v:val="VT0(0):5"/>
				<v:ud v:nameU="IsAsync" v:prompt="" v:val="VT0(0):26"/>
				<v:ud v:nameU="IsSelfMessage" v:prompt="" v:val="VT0(0):5"/>
			</v:userDefs>
			<v:textBlock v:margins="rect(4,4,4,4)" v:tabSpace="42.5197"/>
			<v:textRect cx="63.3096" cy="647.663" width="80.27" height="47.941"/>
			<path d="M0 647.66 L118.14 647.66" class="st6"/>
			<rect v:rectContext="textBkgnd" x="28.3096" y="627.694" width="70.0002" height="39.9372" class="st8"/>
			<text x="28.31" y="637.68" class="st9" v:langID="2052"><v:paragraph v:horizAlign="1"/><v:tabList/>交易二进制编码<v:newlineChar/><tspan
						x="33.31" dy="1.331em" class="st11">一级账户身份<v:newlineChar/></tspan><tspan x="43.31" dy="1.331em"
						class="st11">算法类型</tspan></text>		</g>
		<g id="shape124-169" v:mID="124" v:groupContext="shape" v:layerMember="0" transform="translate(268.528,-323.555)">
			<title>动态连接线.124</title>
			<desc>发送签名后的 交易二进制</desc>
			<v:userDefs>
				<v:ud v:nameU="IsReturn" v:prompt="" v:val="VT0(0):5"/>
				<v:ud v:nameU="IsAsync" v:prompt="" v:val="VT0(0):26"/>
				<v:ud v:nameU="IsSelfMessage" v:prompt="" v:val="VT0(0):5"/>
			</v:userDefs>
			<v:textBlock v:margins="rect(4,4,4,4)" v:tabSpace="42.5197"/>
			<v:textRect cx="131.58" cy="647.663" width="70.27" height="34.6285"/>
			<path d="M0 647.66 L254.68 647.66" class="st6"/>
			<rect v:rectContext="textBkgnd" x="101.58" y="634.351" width="60.0002" height="26.6248" class="st8"/>
			<text x="101.58" y="644.33" class="st9" v:langID="2052"><v:paragraph v:horizAlign="1"/><v:tabList/>发送签名后的<v:newlineChar/><tspan
						x="106.58" dy="1.331em" class="st11">交易二进制</tspan></text>		</g>
		<g id="shape125-177" v:mID="125" v:groupContext="shape" v:layerMember="0" transform="translate(531.688,-300.877)">
			<title>动态连接线.125</title>
			<desc>发送签名后的 交易二进制</desc>
			<v:userDefs>
				<v:ud v:nameU="IsReturn" v:prompt="" v:val="VT0(0):5"/>
				<v:ud v:nameU="IsAsync" v:prompt="" v:val="VT0(0):26"/>
				<v:ud v:nameU="IsSelfMessage" v:prompt="" v:val="VT0(0):5"/>
			</v:userDefs>
			<v:textBlock v:margins="rect(4,4,4,4)" v:tabSpace="42.5197"/>
			<v:textRect cx="68.2702" cy="647.663" width="70.27" height="34.6285"/>
			<path d="M0 647.66 L128.06 647.66" class="st6"/>
			<rect v:rectContext="textBkgnd" x="38.2702" y="634.351" width="60.0002" height="26.6248" class="st8"/>
			<text x="38.27" y="644.33" class="st9" v:langID="2052"><v:paragraph v:horizAlign="1"/><v:tabList/>发送签名后的<v:newlineChar/><tspan
						x="43.27" dy="1.331em" class="st11">交易二进制</tspan></text>		</g>
		<g id="shape126-185" v:mID="126" v:groupContext="shape" v:layerMember="0" transform="translate(661.141,-288.121)">
			<title>动态连接线.126</title>
			<desc>共识上链</desc>
			<v:userDefs>
				<v:ud v:nameU="IsReturn" v:prompt="" v:val="VT0(0):5"/>
				<v:ud v:nameU="IsAsync" v:prompt="" v:val="VT0(0):26"/>
				<v:ud v:nameU="IsSelfMessage" v:prompt="" v:val="VT0(0):5"/>
				<v:ud v:nameU="IsSelfMessage" v:prompt="" v:val="VT0(1):5"/>
			</v:userDefs>
			<v:textBlock v:margins="rect(4,4,4,4)" v:tabSpace="42.5197"/>
			<v:textRect cx="7.08661" cy="668.923" width="50.27" height="21.3161"/>
			<path d="M7.09 654.75 L25.09 654.75 L25.09 683.1 L15.57 683.1" class="st6"/>
			<rect v:rectContext="textBkgnd" x="-12.9133" y="662.267" width="40.0001" height="13.3124" class="st8"/>
			<text x="-12.91" y="672.25" class="st9" v:langID="2052"><v:paragraph v:horizAlign="1"/><v:tabList/>共识上链</text>		</g>
		<g id="shape127-192" v:mID="127" v:groupContext="shape" v:layerMember="0" transform="translate(668.228,-230.011)">
			<title>动态连接线.127</title>
			<desc>交易回执 + 交易存证证明</desc>
			<v:userDefs>
				<v:ud v:nameU="IsReturn" v:prompt="" v:val="VT0(0):5"/>
				<v:ud v:nameU="IsAsync" v:prompt="" v:val="VT0(0):26"/>
				<v:ud v:nameU="IsSelfMessage" v:prompt="" v:val="VT0(0):5"/>
			</v:userDefs>
			<v:textBlock v:margins="rect(4,4,4,4)" v:tabSpace="42.5197"/>
			<v:textRect cx="-68.2702" cy="647.663" width="70.27" height="34.6285"/>
			<path d="M0 647.66 L-128.06 647.66" class="st6"/>
			<rect v:rectContext="textBkgnd" x="-98.2702" y="634.351" width="60.0002" height="26.6248" class="st8"/>
			<text x="-91.89" y="644.33" class="st9" v:langID="2052"><v:paragraph v:horizAlign="1"/><v:tabList/>交易回执<tspan
						class="st10"> </tspan><tspan class="st10">+<v:newlineChar/></tspan><tspan x="-98.27" dy="1.331em"
						class="st11">交易存证证明</tspan></text>		</g>
		<g id="shape129-202" v:mID="129" v:groupContext="shape" v:layerMember="0" transform="translate(668.228,-193.161)">
			<title>动态连接线.129</title>
			<desc>同步区块头异步</desc>
			<v:userDefs>
				<v:ud v:nameU="IsReturn" v:prompt="" v:val="VT0(0):5"/>
				<v:ud v:nameU="IsAsync" v:prompt="" v:val="VT0(0):26"/>
				<v:ud v:nameU="IsSelfMessage" v:prompt="" v:val="VT0(0):5"/>
			</v:userDefs>
			<v:textBlock v:margins="rect(4,4,4,4)" v:tabSpace="42.5197"/>
			<v:textRect cx="-68.2702" cy="647.663" width="100.27" height="21.3161"/>
			<path d="M0 647.66 L-128.06 647.66" class="st6"/>
			<rect v:rectContext="textBkgnd" x="-113.27" y="641.007" width="90.0003" height="13.3124" class="st8"/>
			<text x="-113.27" y="650.99" class="st9" v:langID="2052"><v:paragraph v:horizAlign="1"/><v:tabList/>同步区块头（异步）</text>		</g>
		<g id="shape130-209" v:mID="130" v:groupContext="shape" v:layerMember="0" transform="translate(531.688,-210.169)">
			<title>动态连接线.130</title>
			<desc>交易回执 + 交易存证证明</desc>
			<v:userDefs>
				<v:ud v:nameU="IsReturn" v:prompt="" v:val="VT0(0):5"/>
				<v:ud v:nameU="IsAsync" v:prompt="" v:val="VT0(0):26"/>
				<v:ud v:nameU="IsSelfMessage" v:prompt="" v:val="VT0(0):5"/>
			</v:userDefs>
			<v:textBlock v:margins="rect(4,4,4,4)" v:tabSpace="42.5197"/>
			<v:textRect cx="-131.58" cy="647.663" width="70.27" height="34.6285"/>
			<path d="M0 647.66 L-254.68 647.66" class="st6"/>
			<rect v:rectContext="textBkgnd" x="-161.58" y="634.351" width="60.0002" height="26.6248" class="st8"/>
			<text x="-155.2" y="644.33" class="st9" v:langID="2052"><v:paragraph v:horizAlign="1"/><v:tabList/>交易回执<tspan
						class="st10"> </tspan><tspan class="st10">+<v:newlineChar/></tspan><tspan x="-161.58" dy="1.331em"
						class="st11">交易存证证明</tspan></text>		</g>
		<g id="shape131-219" v:mID="131" v:groupContext="shape" v:layerMember="0" transform="translate(531.688,-181.822)">
			<title>动态连接线.131</title>
			<desc>同步区块头异步</desc>
			<v:userDefs>
				<v:ud v:nameU="IsReturn" v:prompt="" v:val="VT0(0):5"/>
				<v:ud v:nameU="IsAsync" v:prompt="" v:val="VT0(0):26"/>
				<v:ud v:nameU="IsSelfMessage" v:prompt="" v:val="VT0(0):5"/>
			</v:userDefs>
			<v:textBlock v:margins="rect(4,4,4,4)" v:tabSpace="42.5197"/>
			<v:textRect cx="-131.58" cy="647.663" width="100.27" height="21.3161"/>
			<path d="M0 647.66 L-254.68 647.66" class="st6"/>
			<rect v:rectContext="textBkgnd" x="-176.58" y="641.007" width="90.0003" height="13.3124" class="st8"/>
			<text x="-176.58" y="650.99" class="st9" v:langID="2052"><v:paragraph v:horizAlign="1"/><v:tabList/>同步区块头（异步）</text>		</g>
		<g id="shape132-226" v:mID="132" v:groupContext="shape" v:layerMember="0" transform="translate(261.441,-163.397)">
			<title>动态连接线.132</title>
			<desc>验证区块头 验证交易存在性</desc>
			<v:userDefs>
				<v:ud v:nameU="IsReturn" v:prompt="" v:val="VT0(0):5"/>
				<v:ud v:nameU="IsAsync" v:prompt="" v:val="VT0(0):26"/>
				<v:ud v:nameU="IsSelfMessage" v:prompt="" v:val="VT0(0):5"/>
				<v:ud v:nameU="IsSelfMessage" v:prompt="" v:val="VT0(1):5"/>
			</v:userDefs>
			<v:textBlock v:margins="rect(4,4,4,4)" v:tabSpace="42.5197"/>
			<v:textRect cx="7.08661" cy="671.757" width="80.27" height="34.6285"/>
			<path d="M7.09 654.75 L25.09 654.75 L25.09 688.77 L15.57 688.77" class="st6"/>
			<rect v:rectContext="textBkgnd" x="-27.9134" y="658.445" width="70.0002" height="26.6248" class="st8"/>
			<text x="-17.91" y="668.43" class="st9" v:langID="2052"><v:paragraph v:horizAlign="1"/><v:tabList/>验证区块头<v:newlineChar/><tspan
						x="-27.91" dy="1.331em" class="st11">验证交易存在性</tspan></text>		</g>
		<g id="shape133-234" v:mID="133" v:groupContext="shape" v:layerMember="0" transform="translate(268.528,-102.452)">
			<title>动态连接线.133</title>
			<desc>发送回执 Receipt</desc>
			<v:userDefs>
				<v:ud v:nameU="IsReturn" v:prompt="" v:val="VT0(0):5"/>
				<v:ud v:nameU="IsAsync" v:prompt="" v:val="VT0(0):26"/>
				<v:ud v:nameU="IsSelfMessage" v:prompt="" v:val="VT0(0):5"/>
			</v:userDefs>
			<v:textBlock v:margins="rect(4,4,4,4)" v:tabSpace="42.5197"/>
			<v:textRect cx="-58.3489" cy="647.663" width="83.04" height="21.3161"/>
			<path d="M0 647.66 L-108.22 647.66" class="st6"/>
			<rect v:rectContext="textBkgnd" x="-94.7335" y="641.007" width="72.7693" height="13.3124" class="st8"/>
			<text x="-94.73" y="650.99" class="st9" v:langID="2052"><v:paragraph v:horizAlign="1"/><v:tabList/>发送回执<tspan
						class="st10"> </tspan><tspan class="st10">Receipt</tspan></text>		</g>
		<g id="shape134-243" v:mID="134" v:groupContext="shape" v:layerMember="0" transform="translate(151.83,-85.4443)">
			<title>动态连接线.134</title>
			<desc>发送回执 Receipt</desc>
			<v:userDefs>
				<v:ud v:nameU="IsReturn" v:prompt="" v:val="VT0(0):5"/>
				<v:ud v:nameU="IsAsync" v:prompt="" v:val="VT0(0):26"/>
				<v:ud v:nameU="IsSelfMessage" v:prompt="" v:val="VT0(0):5"/>
			</v:userDefs>
			<v:textBlock v:margins="rect(4,4,4,4)" v:tabSpace="42.5197"/>
			<v:textRect cx="-58.3489" cy="647.663" width="83.04" height="21.3161"/>
			<path d="M0 647.66 L-108.22 647.66" class="st6"/>
			<rect v:rectContext="textBkgnd" x="-94.7335" y="641.007" width="72.7693" height="13.3124" class="st8"/>
			<text x="-94.73" y="650.99" class="st9" v:langID="2052"><v:paragraph v:horizAlign="1"/><v:tabList/>发送回执<tspan
						class="st10"> </tspan><tspan class="st10">Receipt</tspan></text>		</g>
		<g id="group450-252" transform="translate(359.714,-614.106)" v:mID="450" v:groupContext="group">
			<v:userDefs>
				<v:ud v:nameU="visVersion" v:prompt="" v:val="VT0(15):26"/>
				<v:ud v:nameU="ShowActor" v:prompt="" v:val="VT0(0):5"/>
				<v:ud v:nameU="ShowDestruction" v:prompt="" v:val="VT0(0):5"/>
			</v:userDefs>
			<title>对象生命线.450</title>
			<desc>Account Manager</desc>
			<g id="shape451-253" v:mID="451" v:groupContext="shape" transform="translate(9.92126,-5.66929)">
				<title>工作表.451</title>
				<g id="shadow451-254" v:groupContext="shadow" v:shadowOffsetX="0.345598" v:shadowOffsetY="-1.97279"
						v:shadowType="1" transform="matrix(1,0,0,1,0.345598,1.97279)" class="st1">
					<rect x="0" y="629.238" width="51.0236" height="25.5118" class="st2"/>
				</g>
				<rect x="0" y="629.238" width="51.0236" height="25.5118" class="st3"/>
			</g>
			<g id="shape452-258" v:mID="452" v:groupContext="shape" transform="translate(26.9291,-40.3937)">
				<title>工作表.452</title>
				<g id="shadow452-259" v:groupContext="shadow" v:shadowOffsetX="0.345598" v:shadowOffsetY="-1.97279"
						v:shadowType="1" transform="matrix(1,0,0,1,0.345598,1.97279)" class="st1">
					<path d="M8.5 654.75 a0 0 0 1 1 0 0 a0 0 0 1 1 0 0 Z" class="st2"/>
				</g>
				<path d="M8.5 654.75 a0 0 0 1 1 0 0 a0 0 0 1 1 0 0 Z" class="st3"/>
			</g>
			<g id="shape453-263" v:mID="453" v:groupContext="shape" transform="translate(23.622,614.106)">
				<title>工作表.453</title>
				<g id="shadow453-264" v:groupContext="shadow" v:shadowOffsetX="0.345598" v:shadowOffsetY="-1.97279"
						v:shadowType="1" transform="matrix(1,0,0,1,0.345598,1.97279)" class="st1"/>
			</g>
			<g id="shape454-268" v:mID="454" v:groupContext="shape" transform="translate(690.183,654.749) rotate(90)">
				<title>工作表.454</title>
				<path d="M0 654.75 L592.44 654.75" class="st4"/>
			</g>
			<g id="shape450-271" v:mID="450" v:groupContext="groupContent">
				<v:textBlock v:margins="rect(4,4,4,4)" v:tabSpace="42.5197"/>
				<v:textRect cx="35.4331" cy="636.324" width="70.87" height="36.8504"/>
				<g id="shadow450-272" v:groupContext="shadow" v:shadowOffsetX="0.345598" v:shadowOffsetY="-1.97279"
						v:shadowType="1" transform="matrix(1,0,0,1,0.345598,1.97279)" class="st1">
					<rect x="0" y="617.899" width="70.8661" height="36.8504" class="st2"/>
				</g>
				<rect x="0" y="617.899" width="70.8661" height="36.8504" class="st3"/>
				<text x="15.03" y="632.72" class="st5" v:langID="2052"><v:paragraph v:horizAlign="1"/><v:tabList/>Account<v:newlineChar/><tspan
							x="13.05" dy="1.2em" class="st11">Manager</tspan></text>			</g>
		</g>
		<g id="shape455-278" v:mID="455" v:groupContext="shape" v:layerMember="0" transform="translate(388.061,-415.681)">
			<title>动态连接线.455</title>
			<desc>选择相应算法的二级账户签名</desc>
			<v:userDefs>
				<v:ud v:nameU="IsReturn" v:prompt="" v:val="VT0(0):5"/>
				<v:ud v:nameU="IsAsync" v:prompt="" v:val="VT0(0):26"/>
				<v:ud v:nameU="IsSelfMessage" v:prompt="" v:val="VT0(0):5"/>
				<v:ud v:nameU="IsSelfMessage" v:prompt="" v:val="VT0(1):5"/>
			</v:userDefs>
			<v:textBlock v:margins="rect(4,4,4,4)" v:tabSpace="42.5197"/>
			<v:textRect cx="7.08661" cy="673.175" width="140.27" height="21.3161"/>
			<path d="M7.09 654.75 L25.09 654.75 L25.09 691.6 L15.57 691.6" class="st6"/>
			<rect v:rectContext="textBkgnd" x="-57.9135" y="666.519" width="130" height="13.3124" class="st8"/>
			<text x="-57.91" y="676.5" class="st9" v:langID="2052"><v:paragraph v:horizAlign="1"/><v:tabList/>选择相应算法的二级账户签名</text>		</g>
		<g id="shape456-285" v:mID="456" v:groupContext="shape" v:layerMember="0" transform="translate(395.147,-366.074)">
			<title>动态连接线.456</title>
			<desc>签名内容</desc>
			<v:userDefs>
				<v:ud v:nameU="IsReturn" v:prompt="" v:val="VT0(0):5"/>
				<v:ud v:nameU="IsAsync" v:prompt="" v:val="VT0(0):26"/>
				<v:ud v:nameU="IsSelfMessage" v:prompt="" v:val="VT0(0):5"/>
			</v:userDefs>
			<v:textBlock v:margins="rect(4,4,4,4)" v:tabSpace="42.5197"/>
			<v:textRect cx="-63.3096" cy="661.836" width="50.27" height="21.3161"/>
			<path d="M0 661.84 L-118.14 661.84" class="st6"/>
			<rect v:rectContext="textBkgnd" x="-83.3095" y="655.18" width="40.0001" height="13.3124" class="st8"/>
			<text x="-83.31" y="665.16" class="st9" v:langID="2052"><v:paragraph v:horizAlign="1"/><v:tabList/>签名内容</text>		</g>
	</g>
</svg>
