<?xml version="1.0" encoding="UTF-8" standalone="no"?>
<!DOCTYPE svg PUBLIC "-//W3C//DTD SVG 1.1//EN" "http://www.w3.org/Graphics/SVG/1.1/DTD/svg11.dtd">
<!-- 由 Microsoft Visio, SVG Export 生成 flow2.svg 页-1 -->
<svg xmlns="http://www.w3.org/2000/svg" xmlns:xlink="http://www.w3.org/1999/xlink" xmlns:ev="http://www.w3.org/2001/xml-events"
		xmlns:v="http://schemas.microsoft.com/visio/2003/SVGExtensions/" width="11.2887in" height="7.77456in"
		viewBox="0 0 812.786 559.769" xml:space="preserve" color-interpolation-filters="sRGB" class="st14">
	<v:documentProperties v:langID="2052" v:metric="true" v:viewMarkup="false"/>

	<style type="text/css">
	<![CDATA[
		.st1 {visibility:visible}
		.st2 {fill:#5b9bd5;fill-opacity:0.22;filter:url(#filter_2);stroke:#5b9bd5;stroke-opacity:0.22}
		.st3 {fill:#5b9bd5;stroke:#c7c8c8;stroke-width:0.25}
		.st4 {stroke:#5b9bd5;stroke-dasharray:7,5;stroke-linecap:round;stroke-linejoin:round;stroke-width:1}
		.st5 {fill:#feffff;font-family:Calibri;font-size:1.00001em;font-weight:bold}
		.st6 {font-size:1em}
		.st7 {marker-end:url(#mrkr4-107);stroke:#5b9bd5;stroke-linecap:round;stroke-linejoin:round;stroke-width:1}
		.st8 {fill:#5b9bd5;fill-opacity:1;stroke:#5b9bd5;stroke-opacity:1;stroke-width:0.23584905660377}
		.st9 {fill:#ffffff;stroke:none;stroke-linecap:butt}
		.st10 {fill:#4f87bb;font-family:黑体;font-size:0.833336em}
		.st11 {font-family:Calibri;font-size:1em}
		.st12 {fill:#ffffff;stroke:none;stroke-linecap:butt;stroke-width:7.2}
		.st13 {fill:#ff0000;font-family:黑体;font-size:0.833336em}
		.st14 {fill:none;fill-rule:evenodd;font-size:12px;overflow:visible;stroke-linecap:square;stroke-miterlimit:3}
	]]>
	</style>

	<defs id="Markers">
		<g id="lend4">
			<path d="M 2 1 L 0 0 L 2 -1 L 2 1 " style="stroke:none"/>
		</g>
		<marker id="mrkr4-107" class="st8" v:arrowType="4" v:arrowSize="3" v:setback="8.48" refX="-8.48" orient="auto"
				markerUnits="strokeWidth" overflow="visible">
			<use xlink:href="#lend4" transform="scale(-4.24,-4.24) "/>
		</marker>
	</defs>
	<defs id="Filters">
		<filter id="filter_2">
			<feGaussianBlur stdDeviation="2"/>
		</filter>
	</defs>
	<g v:mID="0" v:index="1" v:groupContext="foregroundPage">
		<title>页-1</title>
		<v:pageProperties v:drawingScale="0.0393701" v:pageScale="0.0393701" v:drawingUnits="24" v:shadowOffsetX="8.50394"
				v:shadowOffsetY="-8.50394"/>
		<v:layer v:name="连接线" v:index="0"/>
		<g id="group276-1" transform="translate(168.361,-530.463)" v:mID="276" v:groupContext="group">
			<v:userDefs>
				<v:ud v:nameU="visVersion" v:prompt="" v:val="VT0(15):26"/>
				<v:ud v:nameU="ShowActor" v:prompt="" v:val="VT0(0):5"/>
				<v:ud v:nameU="ShowDestruction" v:prompt="" v:val="VT0(0):5"/>
			</v:userDefs>
			<title>对象生命线.276</title>
			<desc>Router</desc>
			<g id="shape277-2" v:mID="277" v:groupContext="shape">
				<title>工作表.277</title>
				<g id="shadow277-3" v:groupContext="shadow" v:shadowOffsetX="0.345598" v:shadowOffsetY="-1.97279" v:shadowType="1"
						transform="matrix(1,0,0,1,0.345598,1.97279)" class="st1">
					<rect x="0" y="534.257" width="51.0236" height="25.5118" class="st2"/>
				</g>
				<rect x="0" y="534.257" width="51.0236" height="25.5118" class="st3"/>
			</g>
			<g id="shape278-7" v:mID="278" v:groupContext="shape" transform="translate(17.0079,-29.0551)">
				<title>工作表.278</title>
				<g id="shadow278-8" v:groupContext="shadow" v:shadowOffsetX="0.345598" v:shadowOffsetY="-1.97279" v:shadowType="1"
						transform="matrix(1,0,0,1,0.345598,1.97279)" class="st1">
					<path d="M8.5 559.77 a0 0 0 1 1 0 0 a0 0 0 1 1 0 0 Z" class="st2"/>
				</g>
				<path d="M8.5 559.77 a0 0 0 1 1 0 0 a0 0 0 1 1 0 0 Z" class="st3"/>
			</g>
			<g id="shape279-12" v:mID="279" v:groupContext="shape" transform="translate(17.0079,522.182)">
				<title>工作表.279</title>
				<g id="shadow279-13" v:groupContext="shadow" v:shadowOffsetX="0.345598" v:shadowOffsetY="-1.97279" v:shadowType="1"
						transform="matrix(1,0,0,1,0.345598,1.97279)" class="st1"/>
			</g>
			<g id="shape280-17" v:mID="280" v:groupContext="shape" transform="translate(585.28,559.769) rotate(90)">
				<title>工作表.280</title>
				<path d="M0 559.77 L504.57 559.77" class="st4"/>
			</g>
			<g id="shape276-20" v:mID="276" v:groupContext="groupContent">
				<v:textBlock v:margins="rect(4,4,4,4)" v:tabSpace="42.5197"/>
				<v:textRect cx="25.5118" cy="547.013" width="51.03" height="25.5118"/>
				<g id="shadow276-21" v:groupContext="shadow" v:shadowOffsetX="0.345598" v:shadowOffsetY="-1.97279" v:shadowType="1"
						transform="matrix(1,0,0,1,0.345598,1.97279)" class="st1">
					<rect x="0" y="534.257" width="51.0236" height="25.5118" class="st2"/>
				</g>
				<rect x="0" y="534.257" width="51.0236" height="25.5118" class="st3"/>
				<text x="8.45" y="550.61" class="st5" v:langID="2052"><v:paragraph v:horizAlign="1"/><v:tabList/>Router</text>			</g>
		</g>
		<g id="group281-26" transform="translate(327.101,-530.463)" v:mID="281" v:groupContext="group">
			<v:userDefs>
				<v:ud v:nameU="visVersion" v:prompt="" v:val="VT0(15):26"/>
				<v:ud v:nameU="ShowActor" v:prompt="" v:val="VT0(0):5"/>
				<v:ud v:nameU="ShowDestruction" v:prompt="" v:val="VT0(0):5"/>
			</v:userDefs>
			<title>对象生命线.281</title>
			<desc>Driver</desc>
			<g id="shape282-27" v:mID="282" v:groupContext="shape">
				<title>工作表.282</title>
				<g id="shadow282-28" v:groupContext="shadow" v:shadowOffsetX="0.345598" v:shadowOffsetY="-1.97279" v:shadowType="1"
						transform="matrix(1,0,0,1,0.345598,1.97279)" class="st1">
					<rect x="0" y="534.257" width="51.0236" height="25.5118" class="st2"/>
				</g>
				<rect x="0" y="534.257" width="51.0236" height="25.5118" class="st3"/>
			</g>
			<g id="shape283-32" v:mID="283" v:groupContext="shape" transform="translate(17.0079,-29.0551)">
				<title>工作表.283</title>
				<g id="shadow283-33" v:groupContext="shadow" v:shadowOffsetX="0.345598" v:shadowOffsetY="-1.97279" v:shadowType="1"
						transform="matrix(1,0,0,1,0.345598,1.97279)" class="st1">
					<path d="M8.5 559.77 a0 0 0 1 1 0 0 a0 0 0 1 1 0 0 Z" class="st2"/>
				</g>
				<path d="M8.5 559.77 a0 0 0 1 1 0 0 a0 0 0 1 1 0 0 Z" class="st3"/>
			</g>
			<g id="shape284-37" v:mID="284" v:groupContext="shape" transform="translate(17.0079,526.151)">
				<title>工作表.284</title>
				<g id="shadow284-38" v:groupContext="shadow" v:shadowOffsetX="0.345598" v:shadowOffsetY="-1.97279" v:shadowType="1"
						transform="matrix(1,0,0,1,0.345598,1.97279)" class="st1"/>
			</g>
			<g id="shape285-42" v:mID="285" v:groupContext="shape" transform="translate(585.28,559.769) rotate(90)">
				<title>工作表.285</title>
				<path d="M0 559.77 L508.54 559.77" class="st4"/>
			</g>
			<g id="shape281-45" v:mID="281" v:groupContext="groupContent">
				<v:textBlock v:margins="rect(4,4,4,4)" v:tabSpace="42.5197"/>
				<v:textRect cx="25.5118" cy="547.013" width="51.03" height="25.5118"/>
				<g id="shadow281-46" v:groupContext="shadow" v:shadowOffsetX="0.345598" v:shadowOffsetY="-1.97279" v:shadowType="1"
						transform="matrix(1,0,0,1,0.345598,1.97279)" class="st1">
					<rect x="0" y="534.257" width="51.0236" height="25.5118" class="st2"/>
				</g>
				<rect x="0" y="534.257" width="51.0236" height="25.5118" class="st3"/>
				<text x="10.13" y="550.61" class="st5" v:langID="2052"><v:paragraph v:horizAlign="1"/><v:tabList/>Driver</text>			</g>
		</g>
		<g id="group286-51" transform="translate(9.62044,-530.463)" v:mID="286" v:groupContext="group">
			<v:userDefs>
				<v:ud v:nameU="visVersion" v:prompt="" v:val="VT0(15):26"/>
				<v:ud v:nameU="ShowActor" v:prompt="" v:val="VT0(0):5"/>
				<v:ud v:nameU="ShowDestruction" v:prompt="" v:val="VT0(0):5"/>
			</v:userDefs>
			<title>对象生命线.286</title>
			<desc>SDK</desc>
			<g id="shape287-52" v:mID="287" v:groupContext="shape">
				<title>工作表.287</title>
				<g id="shadow287-53" v:groupContext="shadow" v:shadowOffsetX="0.345598" v:shadowOffsetY="-1.97279" v:shadowType="1"
						transform="matrix(1,0,0,1,0.345598,1.97279)" class="st1">
					<rect x="0" y="534.257" width="51.0236" height="25.5118" class="st2"/>
				</g>
				<rect x="0" y="534.257" width="51.0236" height="25.5118" class="st3"/>
			</g>
			<g id="shape288-57" v:mID="288" v:groupContext="shape" transform="translate(17.0079,-29.0551)">
				<title>工作表.288</title>
				<g id="shadow288-58" v:groupContext="shadow" v:shadowOffsetX="0.345598" v:shadowOffsetY="-1.97279" v:shadowType="1"
						transform="matrix(1,0,0,1,0.345598,1.97279)" class="st1">
					<path d="M8.5 559.77 a0 0 0 1 1 0 0 a0 0 0 1 1 0 0 Z" class="st2"/>
				</g>
				<path d="M8.5 559.77 a0 0 0 1 1 0 0 a0 0 0 1 1 0 0 Z" class="st3"/>
			</g>
			<g id="shape289-62" v:mID="289" v:groupContext="shape" transform="translate(17.0079,522.182)">
				<title>工作表.289</title>
				<g id="shadow289-63" v:groupContext="shadow" v:shadowOffsetX="0.345598" v:shadowOffsetY="-1.97279" v:shadowType="1"
						transform="matrix(1,0,0,1,0.345598,1.97279)" class="st1"/>
			</g>
			<g id="shape290-67" v:mID="290" v:groupContext="shape" transform="translate(585.28,559.769) rotate(90)">
				<title>工作表.290</title>
				<path d="M0 559.77 L504.57 559.77" class="st4"/>
			</g>
			<g id="shape286-70" v:mID="286" v:groupContext="groupContent">
				<v:textBlock v:margins="rect(4,4,4,4)" v:tabSpace="42.5197"/>
				<v:textRect cx="25.5118" cy="547.013" width="51.03" height="25.5118"/>
				<g id="shadow286-71" v:groupContext="shadow" v:shadowOffsetX="0.345598" v:shadowOffsetY="-1.97279" v:shadowType="1"
						transform="matrix(1,0,0,1,0.345598,1.97279)" class="st1">
					<rect x="0" y="534.257" width="51.0236" height="25.5118" class="st2"/>
				</g>
				<rect x="0" y="534.257" width="51.0236" height="25.5118" class="st3"/>
				<text x="15.61" y="550.61" class="st5" v:langID="2052"><v:paragraph v:horizAlign="1"/><v:tabList/>SDK</text>			</g>
		</g>
		<g id="group291-76" transform="translate(448.991,-518.095)" v:mID="291" v:groupContext="group">
			<v:userDefs>
				<v:ud v:nameU="visVersion" v:prompt="" v:val="VT0(15):26"/>
				<v:ud v:nameU="ShowActor" v:prompt="" v:val="VT0(0):5"/>
				<v:ud v:nameU="ShowDestruction" v:prompt="" v:val="VT0(0):5"/>
			</v:userDefs>
			<title>对象生命线.291</title>
			<desc>Connection (Remote)</desc>
			<g id="shape292-77" v:mID="292" v:groupContext="shape" transform="translate(9.92126,-6.184)">
				<title>工作表.292</title>
				<g id="shadow292-78" v:groupContext="shadow" v:shadowOffsetX="0.345598" v:shadowOffsetY="-1.97279" v:shadowType="1"
						transform="matrix(1,0,0,1,0.345598,1.97279)" class="st1">
					<rect x="0" y="534.257" width="51.0236" height="25.5118" class="st2"/>
				</g>
				<rect x="0" y="534.257" width="51.0236" height="25.5118" class="st3"/>
			</g>
			<g id="shape293-82" v:mID="293" v:groupContext="shape" transform="translate(26.9291,-41.4231)">
				<title>工作表.293</title>
				<g id="shadow293-83" v:groupContext="shadow" v:shadowOffsetX="0.345598" v:shadowOffsetY="-1.97279" v:shadowType="1"
						transform="matrix(1,0,0,1,0.345598,1.97279)" class="st1">
					<path d="M8.5 559.77 a0 0 0 1 1 0 0 a0 0 0 1 1 0 0 Z" class="st2"/>
				</g>
				<path d="M8.5 559.77 a0 0 0 1 1 0 0 a0 0 0 1 1 0 0 Z" class="st3"/>
			</g>
			<g id="shape294-87" v:mID="294" v:groupContext="shape" transform="translate(23.622,518.095)">
				<title>工作表.294</title>
				<g id="shadow294-88" v:groupContext="shadow" v:shadowOffsetX="0.345598" v:shadowOffsetY="-1.97279" v:shadowType="1"
						transform="matrix(1,0,0,1,0.345598,1.97279)" class="st1"/>
			</g>
			<g id="shape295-92" v:mID="295" v:groupContext="shape" transform="translate(595.202,559.769) rotate(90)">
				<title>工作表.295</title>
				<path d="M0 559.77 L496.06 559.77" class="st4"/>
			</g>
			<g id="shape291-95" v:mID="291" v:groupContext="groupContent">
				<v:textBlock v:margins="rect(4,4,4,4)" v:tabSpace="42.5197"/>
				<v:textRect cx="35.4331" cy="540.829" width="70.87" height="37.8798"/>
				<g id="shadow291-96" v:groupContext="shadow" v:shadowOffsetX="0.345598" v:shadowOffsetY="-1.97279" v:shadowType="1"
						transform="matrix(1,0,0,1,0.345598,1.97279)" class="st1">
					<rect x="0" y="521.889" width="70.8661" height="37.8798" class="st2"/>
				</g>
				<rect x="0" y="521.889" width="70.8661" height="37.8798" class="st3"/>
				<text x="7.06" y="537.23" class="st5" v:langID="2052"><v:paragraph v:horizAlign="1"/><v:tabList/>Connection<v:newlineChar/><tspan
							x="12.09" dy="1.2em" class="st6">(</tspan>Remote)</text>			</g>
		</g>
		<g id="shape296-102" v:mID="296" v:groupContext="shape" v:layerMember="0" transform="translate(35.1322,-441.172)">
			<title>动态连接线.296</title>
			<desc>发送 Transaction</desc>
			<v:userDefs>
				<v:ud v:nameU="IsReturn" v:prompt="" v:val="VT0(0):5"/>
				<v:ud v:nameU="IsAsync" v:prompt="" v:val="VT0(0):26"/>
				<v:ud v:nameU="IsSelfMessage" v:prompt="" v:val="VT0(0):5"/>
			</v:userDefs>
			<v:textBlock v:margins="rect(4,4,4,4)" v:tabSpace="42.5197"/>
			<v:textRect cx="79.3701" cy="552.682" width="80.04" height="21.3161"/>
			<path d="M0 552.68 L150.26 552.68" class="st7"/>
			<rect v:rectContext="textBkgnd" x="44.4872" y="546.026" width="69.7659" height="13.3124" class="st9"/>
			<text x="44.49" y="556.01" class="st10" v:langID="2052"><v:paragraph v:horizAlign="1"/><v:tabList/>发送<tspan
						class="st11"> </tspan><tspan class="st11">Transaction</tspan></text>		</g>
		<g id="shape297-112" v:mID="297" v:groupContext="shape" v:layerMember="0" transform="translate(186.786,-431.251)">
			<title>动态连接线.297</title>
			<desc>验证一级账户签名 找到二级账户私钥</desc>
			<v:userDefs>
				<v:ud v:nameU="IsReturn" v:prompt="" v:val="VT0(0):5"/>
				<v:ud v:nameU="IsAsync" v:prompt="" v:val="VT0(0):26"/>
				<v:ud v:nameU="IsSelfMessage" v:prompt="" v:val="VT0(0):5"/>
				<v:ud v:nameU="IsSelfMessage" v:prompt="" v:val="VT0(1):5"/>
			</v:userDefs>
			<v:textBlock v:margins="rect(4,4,4,4)" v:tabSpace="42.5197"/>
			<v:textRect cx="7.08661" cy="581.028" width="100.27" height="34.6285"/>
			<path d="M7.09 559.77 L25.09 559.77 L25.09 602.29 L15.57 602.29" class="st7"/>
			<rect v:rectContext="textBkgnd" x="-37.9134" y="567.716" width="90.0003" height="26.6248" class="st12"/>
			<text x="-37.91" y="577.7" class="st10" v:langID="2052"><v:paragraph v:horizAlign="1"/><v:tabList/>验证一级账户签名，<v:newlineChar/><tspan
						x="-32.91" dy="1.331em" class="st6">找到二级账户私钥</tspan></text>		</g>
		<g id="group298-120" transform="translate(738.199,-530.463)" v:mID="298" v:groupContext="group">
			<v:userDefs>
				<v:ud v:nameU="visVersion" v:prompt="" v:val="VT0(15):26"/>
				<v:ud v:nameU="ShowActor" v:prompt="" v:val="VT0(0):5"/>
				<v:ud v:nameU="ShowDestruction" v:prompt="" v:val="VT0(0):5"/>
			</v:userDefs>
			<title>对象生命线.298</title>
			<desc>Blockchain</desc>
			<g id="shape299-121" v:mID="299" v:groupContext="shape" transform="translate(9.92126,0)">
				<title>工作表.299</title>
				<g id="shadow299-122" v:groupContext="shadow" v:shadowOffsetX="0.345598" v:shadowOffsetY="-1.97279"
						v:shadowType="1" transform="matrix(1,0,0,1,0.345598,1.97279)" class="st1">
					<rect x="0" y="534.257" width="51.0236" height="25.5118" class="st2"/>
				</g>
				<rect x="0" y="534.257" width="51.0236" height="25.5118" class="st3"/>
			</g>
			<g id="shape300-126" v:mID="300" v:groupContext="shape" transform="translate(26.9291,-29.0551)">
				<title>工作表.300</title>
				<g id="shadow300-127" v:groupContext="shadow" v:shadowOffsetX="0.345598" v:shadowOffsetY="-1.97279"
						v:shadowType="1" transform="matrix(1,0,0,1,0.345598,1.97279)" class="st1">
					<path d="M8.5 559.77 a0 0 0 1 1 0 0 a0 0 0 1 1 0 0 Z" class="st2"/>
				</g>
				<path d="M8.5 559.77 a0 0 0 1 1 0 0 a0 0 0 1 1 0 0 Z" class="st3"/>
			</g>
			<g id="shape301-131" v:mID="301" v:groupContext="shape" transform="translate(23.622,522.182)">
				<title>工作表.301</title>
				<g id="shadow301-132" v:groupContext="shadow" v:shadowOffsetX="0.345598" v:shadowOffsetY="-1.97279"
						v:shadowType="1" transform="matrix(1,0,0,1,0.345598,1.97279)" class="st1"/>
			</g>
			<g id="shape302-136" v:mID="302" v:groupContext="shape" transform="translate(595.202,559.769) rotate(90)">
				<title>工作表.302</title>
				<path d="M0 559.77 L504.57 559.77" class="st4"/>
			</g>
			<g id="shape298-139" v:mID="298" v:groupContext="groupContent">
				<v:textBlock v:margins="rect(4,4,4,4)" v:tabSpace="42.5197"/>
				<v:textRect cx="35.4331" cy="547.013" width="70.87" height="25.5118"/>
				<g id="shadow298-140" v:groupContext="shadow" v:shadowOffsetX="0.345598" v:shadowOffsetY="-1.97279"
						v:shadowType="1" transform="matrix(1,0,0,1,0.345598,1.97279)" class="st1">
					<rect x="0" y="534.257" width="70.8661" height="25.5118" class="st2"/>
				</g>
				<rect x="0" y="534.257" width="70.8661" height="25.5118" class="st3"/>
				<text x="8.59" y="550.61" class="st5" v:langID="2052"><v:paragraph v:horizAlign="1"/><v:tabList/>Blockchain</text>			</g>
		</g>
		<g id="shape303-145" v:mID="303" v:groupContext="shape" v:layerMember="0" transform="translate(28.0456,-513.456)">
			<title>动态连接线.303</title>
			<desc>一级账户签名</desc>
			<v:userDefs>
				<v:ud v:nameU="IsReturn" v:prompt="" v:val="VT0(0):5"/>
				<v:ud v:nameU="IsAsync" v:prompt="" v:val="VT0(0):26"/>
				<v:ud v:nameU="IsSelfMessage" v:prompt="" v:val="VT0(0):5"/>
				<v:ud v:nameU="IsSelfMessage" v:prompt="" v:val="VT0(1):5"/>
			</v:userDefs>
			<v:textBlock v:margins="rect(4,4,4,4)" v:tabSpace="42.5197"/>
			<v:textRect cx="7.08661" cy="581.028" width="70.27" height="21.3161"/>
			<path d="M7.09 559.77 L25.09 559.77 L25.09 602.29 L15.57 602.29" class="st7"/>
			<rect v:rectContext="textBkgnd" x="-22.9134" y="574.372" width="60.0002" height="13.3124" class="st12"/>
			<text x="-22.91" y="584.36" class="st10" v:langID="2052"><v:paragraph v:horizAlign="1"/><v:tabList/>一级账户签名</text>		</g>
		<g id="shape304-152" v:mID="304" v:groupContext="shape" v:layerMember="0" transform="translate(193.872,-361.802)">
			<title>动态连接线.304</title>
			<desc>发送 Transaction + 二级账户私钥</desc>
			<v:userDefs>
				<v:ud v:nameU="IsReturn" v:prompt="" v:val="VT0(0):5"/>
				<v:ud v:nameU="IsAsync" v:prompt="" v:val="VT0(0):26"/>
				<v:ud v:nameU="IsSelfMessage" v:prompt="" v:val="VT0(0):5"/>
			</v:userDefs>
			<v:textBlock v:margins="rect(4,4,4,4)" v:tabSpace="42.5197"/>
			<v:textRect cx="79.3701" cy="552.682" width="87.28" height="34.6285"/>
			<path d="M0 552.68 L150.26 552.68" class="st7"/>
			<rect v:rectContext="textBkgnd" x="40.8667" y="539.37" width="77.007" height="26.6248" class="st12"/>
			<text x="40.87" y="549.35" class="st10" v:langID="2052"><v:paragraph v:horizAlign="1"/><v:tabList/>发送<tspan
						class="st11"> </tspan><tspan class="st11">Transaction </tspan><tspan class="st11">+<v:newlineChar/></tspan><tspan
						x="49.37" dy="1.331em" class="st6">二级账户私钥</tspan> </text>		</g>
		<g id="shape305-163" v:mID="305" v:groupContext="shape" v:layerMember="0" transform="translate(345.526,-346.211)">
			<title>动态连接线.305</title>
			<desc>交易二进制编码 用二级账户私钥签名</desc>
			<v:userDefs>
				<v:ud v:nameU="IsReturn" v:prompt="" v:val="VT0(0):5"/>
				<v:ud v:nameU="IsAsync" v:prompt="" v:val="VT0(0):26"/>
				<v:ud v:nameU="IsSelfMessage" v:prompt="" v:val="VT0(0):5"/>
				<v:ud v:nameU="IsSelfMessage" v:prompt="" v:val="VT0(1):5"/>
			</v:userDefs>
			<v:textBlock v:margins="rect(4,4,4,4)" v:tabSpace="42.5197"/>
			<v:textRect cx="7.08661" cy="581.028" width="100.27" height="34.6285"/>
			<path d="M7.09 559.77 L25.09 559.77 L25.09 602.29 L15.57 602.29" class="st7"/>
			<rect v:rectContext="textBkgnd" x="-37.9134" y="567.716" width="90.0003" height="26.6248" class="st12"/>
			<text x="-32.91" y="577.7" class="st10" v:langID="2052"><v:paragraph v:horizAlign="1"/><v:tabList/>交易二进制编码，<v:newlineChar/><tspan
						x="-37.91" dy="1.331em" class="st6">用二级账户私钥签名</tspan></text>		</g>
		<g id="shape306-171" v:mID="306" v:groupContext="shape" v:layerMember="0" transform="translate(352.613,-268.259)">
			<title>动态连接线.306</title>
			<desc>发送签名后的 交易二进制</desc>
			<v:userDefs>
				<v:ud v:nameU="IsReturn" v:prompt="" v:val="VT0(0):5"/>
				<v:ud v:nameU="IsAsync" v:prompt="" v:val="VT0(0):26"/>
				<v:ud v:nameU="IsSelfMessage" v:prompt="" v:val="VT0(0):5"/>
			</v:userDefs>
			<v:textBlock v:margins="rect(4,4,4,4)" v:tabSpace="42.5197"/>
			<v:textRect cx="64.2271" cy="552.682" width="70.27" height="34.6285"/>
			<path d="M0 552.68 L119.97 552.68" class="st7"/>
			<rect v:rectContext="textBkgnd" x="34.2271" y="539.37" width="60.0002" height="26.6248" class="st12"/>
			<text x="34.23" y="549.35" class="st10" v:langID="2052"><v:paragraph v:horizAlign="1"/><v:tabList/>发送签名后的<v:newlineChar/><tspan
						x="39.23" dy="1.331em" class="st6">交易二进制</tspan></text>		</g>
		<g id="shape307-179" v:mID="307" v:groupContext="shape" v:layerMember="0" transform="translate(620.934,-268.259)">
			<title>动态连接线.307</title>
			<desc>发送签名后的 交易二进制</desc>
			<v:userDefs>
				<v:ud v:nameU="IsReturn" v:prompt="" v:val="VT0(0):5"/>
				<v:ud v:nameU="IsAsync" v:prompt="" v:val="VT0(0):26"/>
				<v:ud v:nameU="IsSelfMessage" v:prompt="" v:val="VT0(0):5"/>
			</v:userDefs>
			<v:textBlock v:margins="rect(4,4,4,4)" v:tabSpace="42.5197"/>
			<v:textRect cx="76.3489" cy="566.855" width="70.27" height="34.6285"/>
			<path d="M0 566.86 L144.22 566.86" class="st7"/>
			<rect v:rectContext="textBkgnd" x="46.349" y="553.543" width="60.0002" height="26.6248" class="st12"/>
			<text x="46.35" y="563.53" class="st10" v:langID="2052"><v:paragraph v:horizAlign="1"/><v:tabList/>发送签名后的<v:newlineChar/><tspan
						x="51.35" dy="1.331em" class="st6">交易二进制</tspan></text>		</g>
		<g id="shape308-187" v:mID="308" v:groupContext="shape" v:layerMember="0" transform="translate(766.545,-246.999)">
			<title>动态连接线.308</title>
			<desc>共识上链</desc>
			<v:userDefs>
				<v:ud v:nameU="IsReturn" v:prompt="" v:val="VT0(0):5"/>
				<v:ud v:nameU="IsAsync" v:prompt="" v:val="VT0(0):26"/>
				<v:ud v:nameU="IsSelfMessage" v:prompt="" v:val="VT0(0):5"/>
				<v:ud v:nameU="IsSelfMessage" v:prompt="" v:val="VT0(1):5"/>
			</v:userDefs>
			<v:textBlock v:margins="rect(4,4,4,4)" v:tabSpace="42.5197"/>
			<v:textRect cx="7.08661" cy="581.028" width="50.27" height="21.3161"/>
			<path d="M7.09 559.77 L25.09 559.77 L25.09 602.29 L15.57 602.29" class="st7"/>
			<rect v:rectContext="textBkgnd" x="-12.9133" y="574.372" width="40.0001" height="13.3124" class="st12"/>
			<text x="-12.91" y="584.36" class="st10" v:langID="2052"><v:paragraph v:horizAlign="1"/><v:tabList/>共识上链</text>		</g>
		<g id="shape309-194" v:mID="309" v:groupContext="shape" v:layerMember="0" transform="translate(773.632,-180.385)">
			<title>动态连接线.309</title>
			<desc>交易回执 + 交易存证证明</desc>
			<v:userDefs>
				<v:ud v:nameU="IsReturn" v:prompt="" v:val="VT0(0):5"/>
				<v:ud v:nameU="IsAsync" v:prompt="" v:val="VT0(0):26"/>
				<v:ud v:nameU="IsSelfMessage" v:prompt="" v:val="VT0(0):5"/>
			</v:userDefs>
			<v:textBlock v:margins="rect(4,4,4,4)" v:tabSpace="42.5197"/>
			<v:textRect cx="-76.3489" cy="552.682" width="70.27" height="34.6285"/>
			<path d="M0 552.68 L-144.22 552.68" class="st7"/>
			<rect v:rectContext="textBkgnd" x="-106.349" y="539.37" width="60.0002" height="26.6248" class="st12"/>
			<text x="-99.97" y="549.35" class="st10" v:langID="2052"><v:paragraph v:horizAlign="1"/><v:tabList/>交易回执<tspan
						class="st11"> </tspan><tspan class="st11">+<v:newlineChar/></tspan><tspan x="-106.35" dy="1.331em"
						class="st6">交易存证证明</tspan></text>		</g>
		<g id="shape310-204" v:mID="310" v:groupContext="shape" v:layerMember="0" transform="translate(773.632,-146.369)">
			<title>动态连接线.310</title>
			<desc>同步区块头异步</desc>
			<v:userDefs>
				<v:ud v:nameU="IsReturn" v:prompt="" v:val="VT0(0):5"/>
				<v:ud v:nameU="IsAsync" v:prompt="" v:val="VT0(0):26"/>
				<v:ud v:nameU="IsSelfMessage" v:prompt="" v:val="VT0(0):5"/>
			</v:userDefs>
			<v:textBlock v:margins="rect(4,4,4,4)" v:tabSpace="42.5197"/>
			<v:textRect cx="-76.3489" cy="552.682" width="100.27" height="21.3161"/>
			<path d="M0 552.68 L-144.22 552.68" class="st7"/>
			<rect v:rectContext="textBkgnd" x="-121.349" y="546.026" width="90.0003" height="13.3124" class="st12"/>
			<text x="-121.35" y="556.01" class="st10" v:langID="2052"><v:paragraph v:horizAlign="1"/><v:tabList/>同步区块头（异步）</text>		</g>
		<g id="shape311-211" v:mID="311" v:groupContext="shape" v:layerMember="0" transform="translate(484.051,-169.046)">
			<title>动态连接线.311</title>
			<desc>直接透传</desc>
			<v:userDefs>
				<v:ud v:nameU="IsReturn" v:prompt="" v:val="VT0(0):5"/>
				<v:ud v:nameU="IsAsync" v:prompt="" v:val="VT0(0):26"/>
				<v:ud v:nameU="IsSelfMessage" v:prompt="" v:val="VT0(0):5"/>
			</v:userDefs>
			<v:textBlock v:margins="rect(4,4,4,4)" v:tabSpace="42.5197"/>
			<v:textRect cx="-65.719" cy="552.682" width="50.27" height="21.3161"/>
			<path d="M0 552.68 L-122.96 552.68" class="st7"/>
			<rect v:rectContext="textBkgnd" x="-85.719" y="546.026" width="40.0001" height="13.3124" class="st12"/>
			<text x="-85.72" y="556.01" class="st13" v:langID="2052"><v:paragraph v:horizAlign="1"/><v:tabList/>直接透传</text>		</g>
		<g id="shape312-218" v:mID="312" v:groupContext="shape" v:layerMember="0" transform="translate(484.051,-129.361)">
			<title>动态连接线.312</title>
			<desc>直接透传</desc>
			<v:userDefs>
				<v:ud v:nameU="IsReturn" v:prompt="" v:val="VT0(0):5"/>
				<v:ud v:nameU="IsAsync" v:prompt="" v:val="VT0(0):26"/>
				<v:ud v:nameU="IsSelfMessage" v:prompt="" v:val="VT0(0):5"/>
			</v:userDefs>
			<v:textBlock v:margins="rect(4,4,4,4)" v:tabSpace="42.5197"/>
			<v:textRect cx="-65.719" cy="552.682" width="50.27" height="21.3161"/>
			<path d="M0 552.68 L-122.96 552.68" class="st7"/>
			<rect v:rectContext="textBkgnd" x="-85.719" y="546.026" width="40.0001" height="13.3124" class="st9"/>
			<text x="-85.72" y="556.01" class="st13" v:langID="2052"><v:paragraph v:horizAlign="1"/><v:tabList/>直接透传</text>		</g>
		<g id="shape313-225" v:mID="313" v:groupContext="shape" v:layerMember="0" transform="translate(345.526,-122.274)">
			<title>动态连接线.313</title>
			<desc>验证区块头 验证交易存在性</desc>
			<v:userDefs>
				<v:ud v:nameU="IsReturn" v:prompt="" v:val="VT0(0):5"/>
				<v:ud v:nameU="IsAsync" v:prompt="" v:val="VT0(0):26"/>
				<v:ud v:nameU="IsSelfMessage" v:prompt="" v:val="VT0(0):5"/>
				<v:ud v:nameU="IsSelfMessage" v:prompt="" v:val="VT0(1):5"/>
			</v:userDefs>
			<v:textBlock v:margins="rect(4,4,4,4)" v:tabSpace="42.5197"/>
			<v:textRect cx="7.08661" cy="581.028" width="80.27" height="34.6285"/>
			<path d="M7.09 559.77 L25.09 559.77 L25.09 602.29 L15.57 602.29" class="st7"/>
			<rect v:rectContext="textBkgnd" x="-27.9134" y="567.716" width="70.0002" height="26.6248" class="st9"/>
			<text x="-17.91" y="577.7" class="st10" v:langID="2052"><v:paragraph v:horizAlign="1"/><v:tabList/>验证区块头<v:newlineChar/><tspan
						x="-27.91" dy="1.331em" class="st6">验证交易存在性</tspan></text>		</g>
		<g id="shape314-233" v:mID="314" v:groupContext="shape" v:layerMember="0" transform="translate(352.613,-55.6603)">
			<title>动态连接线.314</title>
			<desc>发送回执 Receipt</desc>
			<v:userDefs>
				<v:ud v:nameU="IsReturn" v:prompt="" v:val="VT0(0):5"/>
				<v:ud v:nameU="IsAsync" v:prompt="" v:val="VT0(0):26"/>
				<v:ud v:nameU="IsSelfMessage" v:prompt="" v:val="VT0(0):5"/>
			</v:userDefs>
			<v:textBlock v:margins="rect(4,4,4,4)" v:tabSpace="42.5197"/>
			<v:textRect cx="-79.3701" cy="552.682" width="83.04" height="21.3161"/>
			<path d="M0 552.68 L-150.26 552.68" class="st7"/>
			<rect v:rectContext="textBkgnd" x="-115.755" y="546.026" width="72.7693" height="13.3124" class="st12"/>
			<text x="-115.75" y="556.01" class="st10" v:langID="2052"><v:paragraph v:horizAlign="1"/><v:tabList/>发送回执<tspan
						class="st11"> </tspan><tspan class="st11">Receipt</tspan></text>		</g>
		<g id="shape315-242" v:mID="315" v:groupContext="shape" v:layerMember="0" transform="translate(193.872,-38.6524)">
			<title>动态连接线.315</title>
			<desc>发送回执 Receipt</desc>
			<v:userDefs>
				<v:ud v:nameU="IsReturn" v:prompt="" v:val="VT0(0):5"/>
				<v:ud v:nameU="IsAsync" v:prompt="" v:val="VT0(0):26"/>
				<v:ud v:nameU="IsSelfMessage" v:prompt="" v:val="VT0(0):5"/>
			</v:userDefs>
			<v:textBlock v:margins="rect(4,4,4,4)" v:tabSpace="42.5197"/>
			<v:textRect cx="-79.3701" cy="552.682" width="83.04" height="21.3161"/>
			<path d="M0 552.68 L-150.26 552.68" class="st7"/>
			<rect v:rectContext="textBkgnd" x="-115.755" y="546.026" width="72.7693" height="13.3124" class="st12"/>
			<text x="-115.75" y="556.01" class="st10" v:langID="2052"><v:paragraph v:horizAlign="1"/><v:tabList/>发送回执<tspan
						class="st11"> </tspan><tspan class="st11">Receipt</tspan></text>		</g>
		<g id="group326-251" transform="translate(585.501,-530.463)" v:mID="326" v:groupContext="group">
			<v:userDefs>
				<v:ud v:nameU="visVersion" v:prompt="" v:val="VT0(15):26"/>
				<v:ud v:nameU="ShowActor" v:prompt="" v:val="VT0(0):5"/>
				<v:ud v:nameU="ShowDestruction" v:prompt="" v:val="VT0(0):5"/>
			</v:userDefs>
			<title>对象生命线.326</title>
			<desc>Connection</desc>
			<g id="shape327-252" v:mID="327" v:groupContext="shape" transform="translate(9.92126,0)">
				<title>工作表.327</title>
				<g id="shadow327-253" v:groupContext="shadow" v:shadowOffsetX="0.345598" v:shadowOffsetY="-1.97279"
						v:shadowType="1" transform="matrix(1,0,0,1,0.345598,1.97279)" class="st1">
					<rect x="0" y="534.257" width="51.0236" height="25.5118" class="st2"/>
				</g>
				<rect x="0" y="534.257" width="51.0236" height="25.5118" class="st3"/>
			</g>
			<g id="shape328-257" v:mID="328" v:groupContext="shape" transform="translate(26.9291,-29.0551)">
				<title>工作表.328</title>
				<g id="shadow328-258" v:groupContext="shadow" v:shadowOffsetX="0.345598" v:shadowOffsetY="-1.97279"
						v:shadowType="1" transform="matrix(1,0,0,1,0.345598,1.97279)" class="st1">
					<path d="M8.5 559.77 a0 0 0 1 1 0 0 a0 0 0 1 1 0 0 Z" class="st2"/>
				</g>
				<path d="M8.5 559.77 a0 0 0 1 1 0 0 a0 0 0 1 1 0 0 Z" class="st3"/>
			</g>
			<g id="shape329-262" v:mID="329" v:groupContext="shape" transform="translate(23.622,522.182)">
				<title>工作表.329</title>
				<g id="shadow329-263" v:groupContext="shadow" v:shadowOffsetX="0.345598" v:shadowOffsetY="-1.97279"
						v:shadowType="1" transform="matrix(1,0,0,1,0.345598,1.97279)" class="st1"/>
			</g>
			<g id="shape330-267" v:mID="330" v:groupContext="shape" transform="translate(595.202,559.769) rotate(90)">
				<title>工作表.330</title>
				<path d="M0 559.77 L504.57 559.77" class="st4"/>
			</g>
			<g id="shape326-270" v:mID="326" v:groupContext="groupContent">
				<v:textBlock v:margins="rect(4,4,4,4)" v:tabSpace="42.5197"/>
				<v:textRect cx="35.4331" cy="547.013" width="70.87" height="25.5118"/>
				<g id="shadow326-271" v:groupContext="shadow" v:shadowOffsetX="0.345598" v:shadowOffsetY="-1.97279"
						v:shadowType="1" transform="matrix(1,0,0,1,0.345598,1.97279)" class="st1">
					<rect x="0" y="534.257" width="70.8661" height="25.5118" class="st2"/>
				</g>
				<rect x="0" y="534.257" width="70.8661" height="25.5118" class="st3"/>
				<text x="7.06" y="550.61" class="st5" v:langID="2052"><v:paragraph v:horizAlign="1"/><v:tabList/>Connection</text>			</g>
		</g>
		<g id="shape331-276" v:mID="331" v:groupContext="shape" v:layerMember="0" transform="translate(490.615,-268.259)">
			<title>动态连接线.331</title>
			<desc>直接透传</desc>
			<v:userDefs>
				<v:ud v:nameU="IsReturn" v:prompt="" v:val="VT0(0):5"/>
				<v:ud v:nameU="IsAsync" v:prompt="" v:val="VT0(0):26"/>
				<v:ud v:nameU="IsSelfMessage" v:prompt="" v:val="VT0(0):5"/>
			</v:userDefs>
			<v:textBlock v:margins="rect(4,4,4,4)" v:tabSpace="42.5197"/>
			<v:textRect cx="64.2271" cy="552.682" width="50.27" height="21.3161"/>
			<path d="M0 552.68 L119.97 552.68" class="st7"/>
			<rect v:rectContext="textBkgnd" x="44.2272" y="546.026" width="40.0001" height="13.3124" class="st12"/>
			<text x="44.23" y="556.01" class="st13" v:langID="2052"><v:paragraph v:horizAlign="1"/><v:tabList/>直接透传</text>		</g>
		<g id="shape332-283" v:mID="332" v:groupContext="shape" v:layerMember="0" transform="translate(619.069,-169.046)">
			<title>动态连接线.332</title>
			<desc>交易回执 + 交易存证证明</desc>
			<v:userDefs>
				<v:ud v:nameU="IsReturn" v:prompt="" v:val="VT0(0):5"/>
				<v:ud v:nameU="IsAsync" v:prompt="" v:val="VT0(0):26"/>
				<v:ud v:nameU="IsSelfMessage" v:prompt="" v:val="VT0(0):5"/>
			</v:userDefs>
			<v:textBlock v:margins="rect(4,4,4,4)" v:tabSpace="42.5197"/>
			<v:textRect cx="-65.719" cy="552.682" width="70.27" height="34.6285"/>
			<path d="M0 552.68 L-122.96 552.68" class="st7"/>
			<rect v:rectContext="textBkgnd" x="-95.719" y="539.37" width="60.0002" height="26.6248" class="st12"/>
			<text x="-89.34" y="549.35" class="st10" v:langID="2052"><v:paragraph v:horizAlign="1"/><v:tabList/>交易回执<tspan
						class="st11"> </tspan><tspan class="st11">+<v:newlineChar/></tspan><tspan x="-95.72" dy="1.331em"
						class="st6">交易存证证明</tspan></text>		</g>
		<g id="shape333-293" v:mID="333" v:groupContext="shape" v:layerMember="0" transform="translate(619.069,-129.361)">
			<title>动态连接线.333</title>
			<desc>同步区块头异步</desc>
			<v:userDefs>
				<v:ud v:nameU="IsReturn" v:prompt="" v:val="VT0(0):5"/>
				<v:ud v:nameU="IsAsync" v:prompt="" v:val="VT0(0):26"/>
				<v:ud v:nameU="IsSelfMessage" v:prompt="" v:val="VT0(0):5"/>
			</v:userDefs>
			<v:textBlock v:margins="rect(4,4,4,4)" v:tabSpace="42.5197"/>
			<v:textRect cx="-65.719" cy="552.682" width="100.27" height="21.3161"/>
			<path d="M0 552.68 L-122.96 552.68" class="st7"/>
			<rect v:rectContext="textBkgnd" x="-110.719" y="546.026" width="90.0003" height="13.3124" class="st12"/>
			<text x="-110.72" y="556.01" class="st10" v:langID="2052"><v:paragraph v:horizAlign="1"/><v:tabList/>同步区块头（异步）</text>		</g>
	</g>
</svg>
