<svg xmlns="http://www.w3.org/2000/svg" xmlns:xlink="http://www.w3.org/1999/xlink" viewBox="0 0 69.65 39.6"><defs><style>.cls-1{fill:#fff;}.cls-2{fill:url(#未命名的渐变_29);}.cls-3{fill:url(#未命名的渐变_27);}.cls-4{fill:url(#未命名的渐变_28);}</style><linearGradient id="未命名的渐变_29" x1="15.82" y1="13.25" x2="8.36" y2="20.71" gradientUnits="userSpaceOnUse"><stop offset="0" stop-color="#2e4ace"/><stop offset="0.62" stop-color="#fff"/></linearGradient><linearGradient id="未命名的渐变_27" x1="47.17" y1="14.97" x2="61.44" y2="14.97" gradientUnits="userSpaceOnUse"><stop offset="0.11" stop-color="#2e4ace"/><stop offset="0.79" stop-color="#fff"/></linearGradient><linearGradient id="未命名的渐变_28" x1="31.7" y1="10.68" x2="41.84" y2="20.83" gradientUnits="userSpaceOnUse"><stop offset="0.07" stop-color="#2e4ace"/><stop offset="0.69" stop-color="#fff"/></linearGradient></defs><g id="图层_2" data-name="图层 2"><g id="图层_1-2" data-name="图层 1"><path class="cls-1" d="M69.65,9.35V0H64.41V9.35h0a6,6,0,0,1-12,0H47.17a11.24,11.24,0,0,0,22.48,0Z"/><path class="cls-1" d="M5.26,0V9.2a6.09,6.09,0,0,0,4.33,5.92,6,6,0,0,0,6.21-1.89L19.52,17a11.23,11.23,0,0,1-11,3.3A11.35,11.35,0,0,1,0,9.12V0Z"/><path class="cls-2" d="M9.59,15.12a5.7,5.7,0,0,1-2-1v5.86a7,7,0,0,0,.91.31,11.23,11.23,0,0,0,11-3.3L15.8,13.23A6,6,0,0,1,9.59,15.12Z"/><path class="cls-3" d="M61.44,14.49a5.91,5.91,0,0,1-3,.86,6,6,0,0,1-6-6H47.17A11.23,11.23,0,0,0,61.44,20.16Z"/><path class="cls-1" d="M.88,31.72H2.82v.59H.14V28H.88Z"/><path class="cls-1" d="M6.33,28v2.86A1.37,1.37,0,0,1,5.9,32a1.65,1.65,0,0,1-1.17.4A1.64,1.64,0,0,1,3.57,32a1.4,1.4,0,0,1-.44-1.09V28h.75v2.86a.93.93,0,0,0,.21.66.86.86,0,0,0,.64.23c.58,0,.86-.31.86-.91V28Z"/><path class="cls-1" d="M8.4,30.06l1-2h.82l-1.43,2.7v1.58H8V30.73L6.59,28h.83Z"/><path class="cls-1" d="M13.41,28v2.86A1.38,1.38,0,0,1,13,32a1.64,1.64,0,0,1-1.16.4A1.69,1.69,0,0,1,10.64,32a1.39,1.39,0,0,1-.43-1.09V28H11v2.86a.89.89,0,0,0,.22.66.83.83,0,0,0,.64.23c.57,0,.86-.31.86-.91V28Z"/><path class="cls-1" d="M18.73,30.92A1.62,1.62,0,0,1,18.22,32a1.75,1.75,0,0,1-1.17.38,1.6,1.6,0,0,1-1.51-.93,2.61,2.61,0,0,1-.22-1V30a2.59,2.59,0,0,1,.22-1.07,1.64,1.64,0,0,1,.61-.71,1.71,1.71,0,0,1,.93-.25,1.64,1.64,0,0,1,1.14.39,1.58,1.58,0,0,1,.51,1.08H18a1.07,1.07,0,0,0-.26-.67.94.94,0,0,0-.64-.2.85.85,0,0,0-.74.36,1.68,1.68,0,0,0-.27,1v.38a1.81,1.81,0,0,0,.25,1,.81.81,0,0,0,.73.37,1,1,0,0,0,.66-.2,1,1,0,0,0,.27-.65Z"/><path class="cls-1" d="M20.84,30.66H20v1.65h-.74V28h1.51a1.76,1.76,0,0,1,1.14.33,1.16,1.16,0,0,1,.4,1,1.18,1.18,0,0,1-.21.72,1.23,1.23,0,0,1-.57.45l1,1.78v0h-.8ZM20,30.07h.77a.84.84,0,0,0,.59-.2.64.64,0,0,0,.21-.51.73.73,0,0,0-.2-.54.82.82,0,0,0-.58-.19H20Z"/><path class="cls-1" d="M26.32,30.28a2.75,2.75,0,0,1-.21,1.11,1.73,1.73,0,0,1-.63.73,1.84,1.84,0,0,1-1.85,0,1.61,1.61,0,0,1-.63-.73,2.45,2.45,0,0,1-.23-1.08v-.24A2.75,2.75,0,0,1,23,29a1.68,1.68,0,0,1,.63-.73,1.71,1.71,0,0,1,.93-.26,1.8,1.8,0,0,1,.93.25,1.72,1.72,0,0,1,.62.73A2.5,2.5,0,0,1,26.32,30Zm-.74-.22A1.85,1.85,0,0,0,25.31,29a.88.88,0,0,0-.76-.38.87.87,0,0,0-.76.38A1.79,1.79,0,0,0,23.52,30v.25a1.87,1.87,0,0,0,.27,1.09.88.88,0,0,0,.76.39.87.87,0,0,0,.76-.38,1.88,1.88,0,0,0,.27-1.1Z"/><path class="cls-1" d="M29.18,31.21a.51.51,0,0,0-.2-.44,2.59,2.59,0,0,0-.71-.31,3.72,3.72,0,0,1-.83-.34,1.11,1.11,0,0,1-.58-1,1,1,0,0,1,.42-.85,1.68,1.68,0,0,1,1.1-.34,1.83,1.83,0,0,1,.79.17,1.21,1.21,0,0,1,.55.47,1.13,1.13,0,0,1,.2.67h-.74a.69.69,0,0,0-.21-.53.9.9,0,0,0-.6-.18,1,1,0,0,0-.57.15.53.53,0,0,0-.2.44.5.5,0,0,0,.22.39,2.41,2.41,0,0,0,.72.3,3.62,3.62,0,0,1,.8.34,1.23,1.23,0,0,1,.44.44,1.05,1.05,0,0,1,.15.57,1,1,0,0,1-.41.85,1.82,1.82,0,0,1-1.12.32,2.15,2.15,0,0,1-.85-.17,1.47,1.47,0,0,1-.61-.48,1.18,1.18,0,0,1-.21-.7h.74a.68.68,0,0,0,.24.56,1,1,0,0,0,.69.2.9.9,0,0,0,.59-.16A.49.49,0,0,0,29.18,31.21Z"/><path class="cls-1" d="M32.7,31.21a.54.54,0,0,0-.2-.44,2.55,2.55,0,0,0-.72-.31,3.62,3.62,0,0,1-.82-.34,1.12,1.12,0,0,1-.59-1,1,1,0,0,1,.42-.85,1.7,1.7,0,0,1,1.1-.34,1.88,1.88,0,0,1,.8.17,1.32,1.32,0,0,1,.55.47,1.2,1.2,0,0,1,.2.67H32.7a.69.69,0,0,0-.21-.53,1.12,1.12,0,0,0-1.17,0,.5.5,0,0,0-.2.44.49.49,0,0,0,.21.39,2.54,2.54,0,0,0,.72.3,3.42,3.42,0,0,1,.8.34,1.27,1.27,0,0,1,.45.44,1.15,1.15,0,0,1,.14.57,1,1,0,0,1-.41.85,1.77,1.77,0,0,1-1.11.32,2.2,2.2,0,0,1-.86-.17,1.38,1.38,0,0,1-.6-.48,1.12,1.12,0,0,1-.22-.7H31a.66.66,0,0,0,.25.56,1,1,0,0,0,.69.2.87.87,0,0,0,.58-.16A.5.5,0,0,0,32.7,31.21Z"/><path class="cls-1" d="M3.4,38.14a1.53,1.53,0,0,1-.5,1.07,1.73,1.73,0,0,1-1.18.39,1.69,1.69,0,0,1-.9-.25,1.56,1.56,0,0,1-.6-.69,2.52,2.52,0,0,1-.22-1v-.4a2.55,2.55,0,0,1,.21-1.07,1.6,1.6,0,0,1,.62-.71,1.71,1.71,0,0,1,.93-.25,1.69,1.69,0,0,1,1.14.38,1.62,1.62,0,0,1,.5,1.09H2.66A1,1,0,0,0,2.39,36a.9.9,0,0,0-.63-.2.9.9,0,0,0-.75.35,1.77,1.77,0,0,0-.26,1v.38A1.85,1.85,0,0,0,1,38.63a.82.82,0,0,0,.72.37,1,1,0,0,0,.66-.2,1,1,0,0,0,.28-.66Z"/><path class="cls-1" d="M7.35,39.54H6.6v-1.9H4.69v1.9H4V35.26h.74V37H6.6V35.26h.75Z"/><path class="cls-1" d="M10.55,38.54H8.9l-.35,1H7.77l1.62-4.28h.67l1.62,4.28H10.9Zm-1.45-.6h1.24l-.62-1.78Z"/><path class="cls-1" d="M12.83,39.54h-.74V35.26h.74Z"/><path class="cls-1" d="M17,39.54h-.74l-1.91-3v3h-.75V35.26h.75l1.91,3v-3H17Z"/><path class="cls-1" d="M19.9,38v1.59h-.74V35.26H20.8a1.68,1.68,0,0,1,1.14.37,1.26,1.26,0,0,1,.42,1,1.2,1.2,0,0,1-.42,1,1.74,1.74,0,0,1-1.15.35Zm0-.6h.9a.85.85,0,0,0,.6-.19.67.67,0,0,0,.21-.54.74.74,0,0,0-.21-.55.79.79,0,0,0-.58-.21H19.9Z"/><path class="cls-1" d="M24.46,37.89h-.83v1.65h-.74V35.26h1.5a1.77,1.77,0,0,1,1.15.33,1.35,1.35,0,0,1,.19,1.68,1.4,1.4,0,0,1-.58.45l1,1.78v0h-.79Zm-.83-.6h.77A.81.81,0,0,0,25,37.1a.67.67,0,0,0,.21-.52.69.69,0,0,0-.19-.53.8.8,0,0,0-.58-.19h-.79Z"/><path class="cls-1" d="M29.94,37.51a2.51,2.51,0,0,1-.22,1.1,1.59,1.59,0,0,1-.62.73,1.72,1.72,0,0,1-2.49-.72,2.68,2.68,0,0,1-.22-1.09v-.24a2.59,2.59,0,0,1,.22-1.11,1.73,1.73,0,0,1,.63-.73,1.72,1.72,0,0,1,2.48.72,2.7,2.7,0,0,1,.22,1.1Zm-.74-.22a1.9,1.9,0,0,0-.27-1.1.9.9,0,0,0-.77-.38.88.88,0,0,0-.75.38,1.89,1.89,0,0,0-.28,1.07v.25a1.81,1.81,0,0,0,.28,1.09.86.86,0,0,0,.76.38.87.87,0,0,0,.76-.37,1.88,1.88,0,0,0,.27-1.1Z"/><path class="cls-1" d="M33.4,35.86H32.07v3.68h-.74V35.86H30v-.6H33.4Z"/><path class="cls-1" d="M37.18,37.51a2.51,2.51,0,0,1-.22,1.1,1.59,1.59,0,0,1-.62.73,1.72,1.72,0,0,1-2.49-.72,2.68,2.68,0,0,1-.22-1.09v-.24a2.59,2.59,0,0,1,.22-1.11,1.73,1.73,0,0,1,.63-.73,1.72,1.72,0,0,1,2.48.72,2.7,2.7,0,0,1,.22,1.1Zm-.74-.22a1.9,1.9,0,0,0-.27-1.1.9.9,0,0,0-.77-.38.88.88,0,0,0-.75.38,1.89,1.89,0,0,0-.28,1.07v.25a1.81,1.81,0,0,0,.28,1.09.86.86,0,0,0,.76.38.87.87,0,0,0,.76-.37,1.88,1.88,0,0,0,.27-1.1Z"/><path class="cls-1" d="M41.07,38.14a1.54,1.54,0,0,1-.51,1.07,1.86,1.86,0,0,1-2.07.14,1.56,1.56,0,0,1-.6-.69,2.23,2.23,0,0,1-.22-1v-.4a2.55,2.55,0,0,1,.21-1.07,1.54,1.54,0,0,1,.62-.71,1.86,1.86,0,0,1,2.06.13,1.63,1.63,0,0,1,.51,1.09h-.74a1.13,1.13,0,0,0-.27-.67.94.94,0,0,0-.64-.2.87.87,0,0,0-.74.35,1.77,1.77,0,0,0-.27,1v.38a1.85,1.85,0,0,0,.25,1.06.84.84,0,0,0,.73.37,1,1,0,0,0,.66-.2,1.07,1.07,0,0,0,.28-.66Z"/><path class="cls-1" d="M45,37.51a2.51,2.51,0,0,1-.22,1.1,1.59,1.59,0,0,1-.62.73,1.72,1.72,0,0,1-2.49-.72,2.53,2.53,0,0,1-.22-1.09v-.24a2.59,2.59,0,0,1,.22-1.11,1.78,1.78,0,0,1,.62-.73,1.85,1.85,0,0,1,1.86,0,1.62,1.62,0,0,1,.62.72,2.54,2.54,0,0,1,.23,1.1Zm-.75-.22a2,2,0,0,0-.26-1.1.9.9,0,0,0-.77-.38.88.88,0,0,0-.75.38,1.82,1.82,0,0,0-.28,1.07v.25a1.81,1.81,0,0,0,.28,1.09.86.86,0,0,0,.76.38.87.87,0,0,0,.76-.37,1.88,1.88,0,0,0,.26-1.1Z"/><path class="cls-1" d="M46.39,38.94h2v.6H45.65V35.26h.74Z"/><path class="cls-1" d="M52.41,9.35V0H47.17V9.35h0a6,6,0,0,1-12,0H29.93a11.25,11.25,0,0,0,17.24,9.5v2.37a6,6,0,0,1-5.76,6H35.85v5.24h5.56a11.25,11.25,0,0,0,11-11.23V9.35Z"/><path class="cls-4" d="M30.28,12.1A11.28,11.28,0,0,0,37,19.76l4.44-4.44-.24,0a6,6,0,0,1-6-6H33Z"/><path class="cls-1" d="M35.17,9.35V0H29.93V9.35h0a6,6,0,0,1-12,0V0H12.69V9.35a11.24,11.24,0,0,0,22.48,0Z"/></g></g></svg>