<svg id="图层_1" data-name="图层 1" xmlns="http://www.w3.org/2000/svg" viewBox="0 0 89.82 53.22"><defs><style>.cls-1{fill:#314fcb;}</style></defs><path class="cls-1" d="M10.89,38.36h1.95V39H10.15V34.67h.74Z"/><path class="cls-1" d="M16.35,34.67v2.86a1.38,1.38,0,0,1-.44,1.08,1.64,1.64,0,0,1-1.16.4,1.69,1.69,0,0,1-1.17-.39,1.39,1.39,0,0,1-.43-1.09V34.67h.74v2.86a.89.89,0,0,0,.22.66.85.85,0,0,0,.64.23c.57,0,.86-.31.86-.91V34.67Z"/><path class="cls-1" d="M18.42,36.7l1-2h.83l-1.44,2.7V39h-.74V37.37l-1.44-2.7h.82Z"/><path class="cls-1" d="M23.42,34.67v2.86A1.35,1.35,0,0,1,23,38.61a1.62,1.62,0,0,1-1.16.4,1.69,1.69,0,0,1-1.17-.39,1.43,1.43,0,0,1-.43-1.09V34.67H21v2.86a.94.94,0,0,0,.22.66.86.86,0,0,0,.64.23c.57,0,.86-.31.86-.91V34.67Z"/><path class="cls-1" d="M28.74,37.56a1.54,1.54,0,0,1-.51,1.07,1.73,1.73,0,0,1-1.17.38,1.68,1.68,0,0,1-.9-.24,1.56,1.56,0,0,1-.6-.69,2.45,2.45,0,0,1-.22-1v-.4a2.59,2.59,0,0,1,.21-1.07,1.66,1.66,0,0,1,.62-.71,1.71,1.71,0,0,1,.93-.25,1.69,1.69,0,0,1,1.14.38,1.62,1.62,0,0,1,.5,1.09H28a1.07,1.07,0,0,0-.27-.66,1,1,0,0,0-1.38.15,1.75,1.75,0,0,0-.26,1V37a2,2,0,0,0,.24,1.06.84.84,0,0,0,.73.36,1,1,0,0,0,.66-.2,1,1,0,0,0,.28-.65Z"/><path class="cls-1" d="M30.86,37.3H30V39h-.75V34.67h1.51a1.74,1.74,0,0,1,1.14.33,1.17,1.17,0,0,1,.41,1,1.18,1.18,0,0,1-.21.72,1.25,1.25,0,0,1-.58.45l1,1.78v0h-.79ZM30,36.7h.76a.84.84,0,0,0,.59-.19.64.64,0,0,0,.21-.51.73.73,0,0,0-.19-.54.85.85,0,0,0-.59-.19H30Z"/><path class="cls-1" d="M36.34,36.92A2.59,2.59,0,0,1,36.12,38a1.65,1.65,0,0,1-.62.73,1.85,1.85,0,0,1-1.86,0A1.73,1.73,0,0,1,33,38,2.45,2.45,0,0,1,32.79,37V36.7A2.57,2.57,0,0,1,33,35.6a1.62,1.62,0,0,1,.63-.73,1.65,1.65,0,0,1,.92-.26,1.71,1.71,0,0,1,.93.25,1.59,1.59,0,0,1,.62.73,2.5,2.5,0,0,1,.23,1.09Zm-.75-.22a1.85,1.85,0,0,0-.26-1.09.88.88,0,0,0-.77-.38.85.85,0,0,0-.75.38,1.8,1.8,0,0,0-.28,1.07v.24A1.79,1.79,0,0,0,33.81,38a.87.87,0,0,0,.76.39.88.88,0,0,0,.76-.38,1.88,1.88,0,0,0,.26-1.1Z"/><path class="cls-1" d="M39.2,37.85a.53.53,0,0,0-.2-.44,2.55,2.55,0,0,0-.72-.31,3.21,3.21,0,0,1-.82-.34,1.12,1.12,0,0,1-.59-1A1,1,0,0,1,37.3,35a1.65,1.65,0,0,1,1.09-.34,1.88,1.88,0,0,1,.8.17,1.38,1.38,0,0,1,.55.46,1.26,1.26,0,0,1,.2.68H39.2a.69.69,0,0,0-.21-.53.9.9,0,0,0-.6-.19.92.92,0,0,0-.57.16.53.53,0,0,0-.2.44.47.47,0,0,0,.22.39,2.33,2.33,0,0,0,.71.3,3.72,3.72,0,0,1,.81.34,1.23,1.23,0,0,1,.44.44,1.15,1.15,0,0,1,.14.57,1,1,0,0,1-.41.85,1.77,1.77,0,0,1-1.11.32,2.2,2.2,0,0,1-.86-.17,1.46,1.46,0,0,1-.6-.48,1.12,1.12,0,0,1-.22-.7h.74a.69.69,0,0,0,.25.56,1,1,0,0,0,.69.2.87.87,0,0,0,.58-.16A.5.5,0,0,0,39.2,37.85Z"/><path class="cls-1" d="M42.71,37.85a.5.5,0,0,0-.2-.44,2.59,2.59,0,0,0-.71-.31,3.3,3.3,0,0,1-.83-.34,1.11,1.11,0,0,1-.58-1,1,1,0,0,1,.42-.85,1.67,1.67,0,0,1,1.09-.34,1.85,1.85,0,0,1,.8.17,1.25,1.25,0,0,1,.55.46,1.18,1.18,0,0,1,.2.68h-.74a.69.69,0,0,0-.21-.53.9.9,0,0,0-.6-.19,1,1,0,0,0-.57.16.53.53,0,0,0-.2.44.47.47,0,0,0,.22.39,2.3,2.3,0,0,0,.72.3,3.62,3.62,0,0,1,.8.34,1.23,1.23,0,0,1,.44.44,1,1,0,0,1,.14.57,1,1,0,0,1-.41.85,1.77,1.77,0,0,1-1.11.32,2.15,2.15,0,0,1-.85-.17,1.56,1.56,0,0,1-.61-.48,1.18,1.18,0,0,1-.21-.7H41a.68.68,0,0,0,.24.56,1,1,0,0,0,.69.2.92.92,0,0,0,.59-.16A.49.49,0,0,0,42.71,37.85Z"/><path class="cls-1" d="M13.42,44.78a1.54,1.54,0,0,1-.51,1.07,1.69,1.69,0,0,1-1.17.39,1.6,1.6,0,0,1-.9-.25,1.56,1.56,0,0,1-.6-.69,2.23,2.23,0,0,1-.22-1v-.4a2.55,2.55,0,0,1,.21-1.07,1.54,1.54,0,0,1,.62-.71,1.65,1.65,0,0,1,.92-.25,1.65,1.65,0,0,1,1.14.38,1.63,1.63,0,0,1,.51,1.09h-.74a1.13,1.13,0,0,0-.27-.67.94.94,0,0,0-.64-.2.87.87,0,0,0-.74.35,1.87,1.87,0,0,0-.27,1v.38A1.82,1.82,0,0,0,11,45.27a.84.84,0,0,0,.73.37,1,1,0,0,0,.66-.2,1.07,1.07,0,0,0,.28-.66Z"/><path class="cls-1" d="M17.36,46.18h-.74v-1.9H14.71v1.9H14V41.9h.75v1.78h1.91V41.9h.74Z"/><path class="cls-1" d="M20.57,45.18H18.91l-.35,1h-.77l1.62-4.28h.66l1.62,4.28h-.77Zm-1.45-.6h1.24l-.62-1.78Z"/><path class="cls-1" d="M22.84,46.18H22.1V41.9h.74Z"/><path class="cls-1" d="M27,46.18h-.74l-1.91-3v3h-.74V41.9h.74L26.3,45V41.9H27Z"/><path class="cls-1" d="M29.92,44.59v1.59h-.75V41.9h1.64a1.65,1.65,0,0,1,1.14.37,1.26,1.26,0,0,1,.42,1,1.22,1.22,0,0,1-.41,1,1.76,1.76,0,0,1-1.16.35Zm0-.6h.89a.88.88,0,0,0,.61-.19.67.67,0,0,0,.21-.54.75.75,0,0,0-.22-.55.78.78,0,0,0-.58-.21h-.91Z"/><path class="cls-1" d="M34.47,44.53h-.82v1.65H32.9V41.9h1.51a1.76,1.76,0,0,1,1.14.33,1.16,1.16,0,0,1,.4,1,1.25,1.25,0,0,1-.2.72,1.4,1.4,0,0,1-.58.45l1,1.78v0h-.8Zm-.82-.6h.76a.84.84,0,0,0,.59-.19.66.66,0,0,0,.21-.52.71.71,0,0,0-.2-.53.78.78,0,0,0-.58-.19h-.78Z"/><path class="cls-1" d="M40,44.15a2.66,2.66,0,0,1-.22,1.1,1.66,1.66,0,0,1-.62.73,1.72,1.72,0,0,1-2.49-.72,2.53,2.53,0,0,1-.23-1.09v-.24a2.51,2.51,0,0,1,.23-1.1,1.62,1.62,0,0,1,.62-.74,1.85,1.85,0,0,1,1.86,0,1.68,1.68,0,0,1,.62.72,2.7,2.7,0,0,1,.23,1.1Zm-.75-.22a1.9,1.9,0,0,0-.27-1.1.94.94,0,0,0-1.51,0,1.75,1.75,0,0,0-.28,1.07v.25a1.89,1.89,0,0,0,.27,1.09.89.89,0,0,0,.77.38.86.86,0,0,0,.75-.37,1.88,1.88,0,0,0,.27-1.1Z"/><path class="cls-1" d="M43.42,42.5H42.08v3.68h-.73V42.5H40v-.6h3.4Z"/><path class="cls-1" d="M47.19,44.15a2.67,2.67,0,0,1-.21,1.1,1.71,1.71,0,0,1-3.11,0,2.68,2.68,0,0,1-.23-1.09v-.24a2.66,2.66,0,0,1,.22-1.1,1.76,1.76,0,0,1,2.49-.74,1.68,1.68,0,0,1,.62.72,2.54,2.54,0,0,1,.22,1.1Zm-.74-.22a1.9,1.9,0,0,0-.27-1.1.88.88,0,0,0-.76-.38.91.91,0,0,0-.76.38,1.82,1.82,0,0,0-.27,1.07v.25a1.89,1.89,0,0,0,.27,1.09,1,1,0,0,0,1.53,0,2,2,0,0,0,.26-1.1Z"/><path class="cls-1" d="M51.08,44.78a1.53,1.53,0,0,1-.5,1.07,1.73,1.73,0,0,1-1.18.39,1.6,1.6,0,0,1-.9-.25,1.56,1.56,0,0,1-.6-.69,2.52,2.52,0,0,1-.22-1v-.4a2.41,2.41,0,0,1,.22-1.07,1.52,1.52,0,0,1,.61-.71,1.71,1.71,0,0,1,.93-.25,1.69,1.69,0,0,1,1.14.38,1.62,1.62,0,0,1,.5,1.09h-.74a1,1,0,0,0-.27-.67,1,1,0,0,0-1.38.15,1.79,1.79,0,0,0-.26,1v.38a1.82,1.82,0,0,0,.25,1.06.82.82,0,0,0,.72.37,1,1,0,0,0,.66-.2,1,1,0,0,0,.28-.66Z"/><path class="cls-1" d="M55,44.15a2.67,2.67,0,0,1-.21,1.1,1.68,1.68,0,0,1-.63.73,1.78,1.78,0,0,1-1.85,0,1.58,1.58,0,0,1-.63-.72,2.53,2.53,0,0,1-.23-1.09v-.24a2.66,2.66,0,0,1,.22-1.1,1.63,1.63,0,0,1,1.56-1,1.65,1.65,0,0,1,.92.25,1.71,1.71,0,0,1,.63.72,2.54,2.54,0,0,1,.22,1.1Zm-.74-.22a1.9,1.9,0,0,0-.27-1.1.88.88,0,0,0-.76-.38.89.89,0,0,0-.76.38,1.89,1.89,0,0,0-.28,1.07v.25a1.89,1.89,0,0,0,.28,1.09,1,1,0,0,0,1.52,0,1.88,1.88,0,0,0,.27-1.1Z"/><path class="cls-1" d="M56.41,45.58h1.94v.6H55.66V41.9h.75Z"/><path class="cls-1" d="M21.84,22.3a5.93,5.93,0,0,1-6.42-6.11V7H10.18v9.13A11.2,11.2,0,0,0,25.39,26.83,13.55,13.55,0,0,1,21.84,22.3Z"/><path class="cls-1" d="M40.09,7v9.34h0a6,6,0,0,1-12,0h0V7H22.85v9.34A11.26,11.26,0,0,0,34.09,27.58,11.29,11.29,0,0,0,45.32,16.33h0V7Z"/><path class="cls-1" d="M62.56,7H57.32v9.35h0a6,6,0,0,1-12,0,11.22,11.22,0,0,1-2.62,7.19,11.19,11.19,0,0,0,14.63,2.31V28.2a6,6,0,0,1-6,6H46v5.24h5.32A11.24,11.24,0,0,0,62.56,28.2V16.42h0Z"/><path class="cls-1" d="M57.32,16.33s0,0,0,.06v-.06h0Z"/><path class="cls-1" d="M79.8,16.33V7H74.56v9.35h0a6,6,0,0,1-12,0v.09h0v9.39a11.11,11.11,0,0,0,6,1.76A11.25,11.25,0,0,0,79.8,16.33Z"/></svg>