<svg id="图层_1" data-name="图层 1" xmlns="http://www.w3.org/2000/svg" xmlns:xlink="http://www.w3.org/1999/xlink" viewBox="0 0 89.82 53.22"><defs><style>.cls-1{fill:#fff;}.cls-2{fill:url(#未命名的渐变_29);}.cls-3{fill:url(#未命名的渐变_27);}.cls-4{fill:url(#未命名的渐变_28);}</style><linearGradient id="未命名的渐变_29" x1="25.91" y1="20.06" x2="18.44" y2="27.52" gradientUnits="userSpaceOnUse"><stop offset="0" stop-color="#2e4ace"/><stop offset="0.62" stop-color="#fff"/></linearGradient><linearGradient id="未命名的渐变_27" x1="57.25" y1="21.78" x2="71.53" y2="21.78" gradientUnits="userSpaceOnUse"><stop offset="0.11" stop-color="#2e4ace"/><stop offset="0.79" stop-color="#fff"/></linearGradient><linearGradient id="未命名的渐变_28" x1="41.79" y1="17.5" x2="51.93" y2="27.64" gradientUnits="userSpaceOnUse"><stop offset="0.07" stop-color="#2e4ace"/><stop offset="0.69" stop-color="#fff"/></linearGradient></defs><path class="cls-1" d="M79.73,16.16V6.81H74.49v9.35h0a6,6,0,0,1-12,0H57.25a11.24,11.24,0,0,0,22.48,0Z"/><path class="cls-1" d="M15.35,6.81V16a6.08,6.08,0,0,0,4.33,5.91A6,6,0,0,0,25.88,20l3.72,3.72a11.22,11.22,0,0,1-11,3.3,11.35,11.35,0,0,1-8.48-11.13V6.81Z"/><path class="cls-2" d="M19.68,21.93a5.83,5.83,0,0,1-2-1v5.86a7.65,7.65,0,0,0,.92.31,11.22,11.22,0,0,0,11-3.3L25.88,20A6,6,0,0,1,19.68,21.93Z"/><path class="cls-3" d="M71.53,21.31a6,6,0,0,1-9-5.15H57.25A11.21,11.21,0,0,0,71.53,27Z"/><path class="cls-1" d="M11,38.53h1.95v.59H10.22V34.84H11Z"/><path class="cls-1" d="M16.42,34.84V37.7A1.38,1.38,0,0,1,16,38.78a1.64,1.64,0,0,1-1.16.4,1.69,1.69,0,0,1-1.17-.39,1.39,1.39,0,0,1-.43-1.09V34.84H14v2.87a.88.88,0,0,0,.22.65.85.85,0,0,0,.64.23c.57,0,.86-.3.86-.91V34.84Z"/><path class="cls-1" d="M18.49,36.87l1-2h.83l-1.44,2.71v1.57h-.74V37.55l-1.44-2.71h.82Z"/><path class="cls-1" d="M23.49,34.84V37.7a1.35,1.35,0,0,1-.44,1.08,1.62,1.62,0,0,1-1.16.4,1.69,1.69,0,0,1-1.17-.39,1.43,1.43,0,0,1-.43-1.09V34.84H21v2.87a.93.93,0,0,0,.22.65.86.86,0,0,0,.64.23c.57,0,.86-.3.86-.91V34.84Z"/><path class="cls-1" d="M28.81,37.73a1.55,1.55,0,0,1-.5,1.07,1.78,1.78,0,0,1-1.18.38,1.68,1.68,0,0,1-.9-.24,1.56,1.56,0,0,1-.6-.69,2.41,2.41,0,0,1-.22-1v-.4a2.59,2.59,0,0,1,.21-1.07,1.72,1.72,0,0,1,.62-.71,1.8,1.8,0,0,1,.93-.25,1.64,1.64,0,0,1,1.14.39,1.57,1.57,0,0,1,.5,1.08h-.74a1.09,1.09,0,0,0-.27-.66.86.86,0,0,0-.63-.21.87.87,0,0,0-.75.36,1.75,1.75,0,0,0-.26,1v.38a2,2,0,0,0,.24,1.06.84.84,0,0,0,.73.36.93.93,0,0,0,.66-.2,1,1,0,0,0,.28-.65Z"/><path class="cls-1" d="M30.93,37.48H30.1v1.64h-.75V34.84h1.51a1.74,1.74,0,0,1,1.14.33,1.2,1.2,0,0,1,.41,1,1.22,1.22,0,0,1-.21.72,1.3,1.3,0,0,1-.58.44l1,1.78v0h-.79Zm-.83-.6h.76a.89.89,0,0,0,.59-.19.67.67,0,0,0,.21-.52.69.69,0,0,0-.19-.53.85.85,0,0,0-.59-.2H30.1Z"/><path class="cls-1" d="M36.41,37.09a2.59,2.59,0,0,1-.22,1.11,1.65,1.65,0,0,1-.62.73,1.85,1.85,0,0,1-1.86,0,1.68,1.68,0,0,1-.63-.73,2.45,2.45,0,0,1-.22-1.08v-.24a2.59,2.59,0,0,1,.22-1.11,1.67,1.67,0,0,1,1.55-1,1.8,1.8,0,0,1,.93.25,1.68,1.68,0,0,1,.63.73,2.66,2.66,0,0,1,.22,1.1Zm-.75-.22a1.87,1.87,0,0,0-.26-1.09.9.9,0,0,0-.77-.38.88.88,0,0,0-.75.38,1.82,1.82,0,0,0-.28,1.07v.24a1.79,1.79,0,0,0,.28,1.09.87.87,0,0,0,.76.39.88.88,0,0,0,.76-.38,1.86,1.86,0,0,0,.26-1.1Z"/><path class="cls-1" d="M39.27,38a.54.54,0,0,0-.2-.44,2.32,2.32,0,0,0-.72-.3,3.59,3.59,0,0,1-.82-.35,1.1,1.1,0,0,1-.59-1,1,1,0,0,1,.43-.85,1.65,1.65,0,0,1,1.09-.34,1.88,1.88,0,0,1,.8.17,1.32,1.32,0,0,1,.55.47,1.2,1.2,0,0,1,.2.67h-.74a.66.66,0,0,0-.21-.52.85.85,0,0,0-.6-.19.92.92,0,0,0-.57.15.54.54,0,0,0-.2.44.46.46,0,0,0,.22.39,2.3,2.3,0,0,0,.71.31,3.75,3.75,0,0,1,.81.33,1.32,1.32,0,0,1,.44.44A1.15,1.15,0,0,1,40,38a1,1,0,0,1-.41.86,1.76,1.76,0,0,1-1.11.31,2.2,2.2,0,0,1-.86-.17,1.31,1.31,0,0,1-.6-.48,1.12,1.12,0,0,1-.22-.7h.75a.68.68,0,0,0,.24.56,1,1,0,0,0,.69.2.94.94,0,0,0,.58-.15A.53.53,0,0,0,39.27,38Z"/><path class="cls-1" d="M42.78,38a.51.51,0,0,0-.2-.44,2.35,2.35,0,0,0-.71-.3,3.69,3.69,0,0,1-.83-.35,1.09,1.09,0,0,1-.58-1,1,1,0,0,1,.42-.85,1.68,1.68,0,0,1,1.1-.34,1.83,1.83,0,0,1,.79.17,1.21,1.21,0,0,1,.55.47,1.13,1.13,0,0,1,.2.67h-.74a.66.66,0,0,0-.21-.52.85.85,0,0,0-.6-.19,1,1,0,0,0-.57.15.54.54,0,0,0-.2.44.46.46,0,0,0,.22.39,2.27,2.27,0,0,0,.72.31,3.65,3.65,0,0,1,.8.33,1.32,1.32,0,0,1,.44.44,1.05,1.05,0,0,1,.15.57,1,1,0,0,1-.42.86,1.76,1.76,0,0,1-1.11.31,2.15,2.15,0,0,1-.85-.17,1.4,1.4,0,0,1-.61-.48,1.18,1.18,0,0,1-.21-.7h.74a.68.68,0,0,0,.24.56,1,1,0,0,0,.69.2,1,1,0,0,0,.59-.15A.52.52,0,0,0,42.78,38Z"/><path class="cls-1" d="M13.49,45A1.53,1.53,0,0,1,13,46a1.69,1.69,0,0,1-1.17.39,1.58,1.58,0,0,1-1.5-.93,2.31,2.31,0,0,1-.22-1V44A2.55,2.55,0,0,1,10.3,43a1.59,1.59,0,0,1,.62-.71,1.65,1.65,0,0,1,.92-.25,1.65,1.65,0,0,1,1.14.38,1.63,1.63,0,0,1,.51,1.09h-.74a1.13,1.13,0,0,0-.27-.67.94.94,0,0,0-.64-.2.87.87,0,0,0-.74.35,1.87,1.87,0,0,0-.27,1v.38a1.82,1.82,0,0,0,.25,1.06.82.82,0,0,0,.73.37,1,1,0,0,0,.66-.2,1.06,1.06,0,0,0,.28-.65Z"/><path class="cls-1" d="M17.43,46.35h-.74v-1.9H14.78v1.9H14V42.07h.75v1.78h1.91V42.07h.74Z"/><path class="cls-1" d="M20.64,45.35H19l-.35,1h-.77l1.62-4.28h.66l1.63,4.28H21Zm-1.45-.6h1.24L19.81,43Z"/><path class="cls-1" d="M22.91,46.35h-.74V42.07h.74Z"/><path class="cls-1" d="M27.11,46.35h-.75l-1.91-3v3h-.74V42.07h.74l1.92,3v-3h.74Z"/><path class="cls-1" d="M30,44.76v1.59h-.75V42.07h1.64a1.65,1.65,0,0,1,1.14.37,1.26,1.26,0,0,1,.42,1,1.22,1.22,0,0,1-.41,1,1.76,1.76,0,0,1-1.16.35Zm0-.6h.89a.86.86,0,0,0,.61-.19.67.67,0,0,0,.21-.54.75.75,0,0,0-.22-.55.78.78,0,0,0-.58-.21H30Z"/><path class="cls-1" d="M34.54,44.7h-.82v1.65H33V42.07h1.51a1.76,1.76,0,0,1,1.14.33,1.16,1.16,0,0,1,.4,1,1.18,1.18,0,0,1-.2.72,1.32,1.32,0,0,1-.58.45l1,1.78v0h-.8Zm-.82-.6h.76a.84.84,0,0,0,.59-.19.66.66,0,0,0,.21-.52.71.71,0,0,0-.2-.53.82.82,0,0,0-.58-.19h-.78Z"/><path class="cls-1" d="M40,44.32a2.66,2.66,0,0,1-.22,1.1,1.66,1.66,0,0,1-.62.73,1.72,1.72,0,0,1-2.49-.72,2.68,2.68,0,0,1-.23-1.09V44.1A2.54,2.54,0,0,1,36.7,43a1.62,1.62,0,0,1,.62-.74,1.85,1.85,0,0,1,1.86,0,1.62,1.62,0,0,1,.62.72,2.7,2.7,0,0,1,.23,1.1Zm-.75-.22A1.85,1.85,0,0,0,39,43a.86.86,0,0,0-.76-.38.87.87,0,0,0-.75.37,1.77,1.77,0,0,0-.28,1.07v.25a1.89,1.89,0,0,0,.27,1.09,1,1,0,0,0,1.53,0,2,2,0,0,0,.26-1.1Z"/><path class="cls-1" d="M43.49,42.67H42.15v3.68h-.73V42.67H40.09v-.6h3.4Z"/><path class="cls-1" d="M47.27,44.32a2.66,2.66,0,0,1-.22,1.1,1.66,1.66,0,0,1-.62.73,1.72,1.72,0,0,1-2.49-.72,2.68,2.68,0,0,1-.23-1.09V44.1a2.54,2.54,0,0,1,.23-1.1,1.62,1.62,0,0,1,.62-.74,1.85,1.85,0,0,1,1.86,0A1.68,1.68,0,0,1,47,43a2.7,2.7,0,0,1,.23,1.1Zm-.75-.22A1.85,1.85,0,0,0,46.25,43a.86.86,0,0,0-.76-.38.87.87,0,0,0-.75.37,1.77,1.77,0,0,0-.28,1.07v.25a1.89,1.89,0,0,0,.27,1.09,1,1,0,0,0,1.53,0,2,2,0,0,0,.26-1.1Z"/><path class="cls-1" d="M51.15,45a1.53,1.53,0,0,1-.5,1.06,1.73,1.73,0,0,1-1.18.39,1.58,1.58,0,0,1-1.5-.93,2.61,2.61,0,0,1-.22-1V44A2.41,2.41,0,0,1,48,43a1.57,1.57,0,0,1,.61-.71,1.71,1.71,0,0,1,.93-.25,1.69,1.69,0,0,1,1.14.38,1.58,1.58,0,0,1,.5,1.09h-.74a1,1,0,0,0-.27-.67,1,1,0,0,0-1.38.15,1.79,1.79,0,0,0-.26,1v.38a1.82,1.82,0,0,0,.25,1.06.79.79,0,0,0,.72.37,1,1,0,0,0,.66-.2,1,1,0,0,0,.28-.65Z"/><path class="cls-1" d="M55.11,44.32a2.67,2.67,0,0,1-.21,1.1,1.68,1.68,0,0,1-.63.73,1.78,1.78,0,0,1-1.85,0,1.58,1.58,0,0,1-.63-.72,2.53,2.53,0,0,1-.23-1.09V44.1a2.7,2.7,0,0,1,.22-1.1,1.76,1.76,0,0,1,2.49-.74,1.75,1.75,0,0,1,.62.72,2.54,2.54,0,0,1,.22,1.1Zm-.74-.22A1.85,1.85,0,0,0,54.1,43a.86.86,0,0,0-.76-.38.89.89,0,0,0-.76.37,1.84,1.84,0,0,0-.27,1.07v.25a1.89,1.89,0,0,0,.27,1.09.88.88,0,0,0,.76.39.87.87,0,0,0,.76-.38,1.88,1.88,0,0,0,.27-1.1Z"/><path class="cls-1" d="M56.48,45.76h1.94v.59H55.73V42.07h.75Z"/><path class="cls-1" d="M62.49,16.16V6.81H57.25v9.35h0a6,6,0,0,1-12,0H40A11.26,11.26,0,0,0,51.25,27.4a11.15,11.15,0,0,0,6-1.74V28a6,6,0,0,1-5.76,6H45.93v5.24h5.56A11.24,11.24,0,0,0,62.49,28V16.16Z"/><path class="cls-4" d="M40.37,18.91a11.25,11.25,0,0,0,6.68,7.66l4.44-4.44a1.75,1.75,0,0,1-.24,0,6,6,0,0,1-6-6H43.12Z"/><path class="cls-1" d="M45.25,16.16V6.81H40v9.35h0a6,6,0,0,1-12,0V6.81H22.78v9.35a11.24,11.24,0,1,0,22.47,0Z"/></svg>